<?xml version="1.0" encoding="us-ascii" standalone="no"?><svg xmlns="http://www.w3.org/2000/svg" xmlns:xlink="http://www.w3.org/1999/xlink" contentStyleType="text/css" height="1210px" preserveAspectRatio="none" style="width:1668px;height:1210px;background:#FFFFFF;" version="1.1" viewBox="0 0 1668 1210" width="1668px" zoomAndPan="magnify"><defs/><g><text fill="#000000" font-family="sans-serif" font-size="14" font-weight="bold" lengthAdjust="spacing" textLength="5" x="824.5" y="22.9951">&#160;</text><text fill="#000000" font-family="sans-serif" font-size="14" font-weight="bold" lengthAdjust="spacing" textLength="154" x="750" y="39.292">DevOps Framework</text><text fill="#000000" font-family="sans-serif" font-size="14" font-weight="bold" lengthAdjust="spacing" textLength="63" x="795.5" y="55.5889">SAPSAN</text><!--cluster src--><g id="cluster_src"><path d="M8.5,75.8906 L34.5,75.8906 A3.75,3.75 0 0 1 37,78.3906 L44,98.1875 L1027.5,98.1875 A2.5,2.5 0 0 1 1030,100.6875 L1030,1200.8906 A2.5,2.5 0 0 1 1027.5,1203.3906 L8.5,1203.3906 A2.5,2.5 0 0 1 6,1200.8906 L6,78.3906 A2.5,2.5 0 0 1 8.5,75.8906 " fill="none" style="stroke:#000000;stroke-width:1.5;"/><line style="stroke:#000000;stroke-width:1.5;" x1="6" x2="44" y1="98.1875" y2="98.1875"/><text fill="#000000" font-family="sans-serif" font-size="14" font-weight="bold" lengthAdjust="spacing" textLength="25" x="10" y="90.8857">src</text></g><!--cluster core--><g id="cluster_core"><path d="M44.5,126.8906 L80.5,126.8906 A3.75,3.75 0 0 1 83,129.3906 L90,149.1875 L972.5,149.1875 A2.5,2.5 0 0 1 975,151.6875 L975,590.3906 A2.5,2.5 0 0 1 972.5,592.8906 L44.5,592.8906 A2.5,2.5 0 0 1 42,590.3906 L42,129.3906 A2.5,2.5 0 0 1 44.5,126.8906 " fill="#DDDDDD" style="stroke:#000000;stroke-width:1.5;"/><line style="stroke:#000000;stroke-width:1.5;" x1="42" x2="90" y1="149.1875" y2="149.1875"/><text fill="#000000" font-family="sans-serif" font-size="14" font-weight="bold" lengthAdjust="spacing" textLength="35" x="46" y="141.8857">core</text></g><!--cluster module--><g id="cluster_module"><path d="M94.5,784.8906 L154.5,784.8906 A3.75,3.75 0 0 1 157,787.3906 L164,807.1875 L354.5,807.1875 A2.5,2.5 0 0 1 357,809.6875 L357,1168.8906 A2.5,2.5 0 0 1 354.5,1171.3906 L94.5,1171.3906 A2.5,2.5 0 0 1 92,1168.8906 L92,787.3906 A2.5,2.5 0 0 1 94.5,784.8906 " fill="#DDDDDD" style="stroke:#000000;stroke-width:1.5;"/><line style="stroke:#000000;stroke-width:1.5;" x1="92" x2="164" y1="807.1875" y2="807.1875"/><text fill="#000000" font-family="sans-serif" font-size="14" font-weight="bold" lengthAdjust="spacing" textLength="59" x="96" y="799.8857">module</text></g><!--cluster service--><g id="cluster_service"><path d="M761.5,812.8906 L819.5,812.8906 A3.75,3.75 0 0 1 822,815.3906 L829,835.1875 L927.5,835.1875 A2.5,2.5 0 0 1 930,837.6875 L930,1132.3906 A2.5,2.5 0 0 1 927.5,1134.8906 L761.5,1134.8906 A2.5,2.5 0 0 1 759,1132.3906 L759,815.3906 A2.5,2.5 0 0 1 761.5,812.8906 " fill="#DDDDDD" style="stroke:#000000;stroke-width:1.5;"/><line style="stroke:#000000;stroke-width:1.5;" x1="759" x2="829" y1="835.1875" y2="835.1875"/><text fill="#000000" font-family="sans-serif" font-size="14" font-weight="bold" lengthAdjust="spacing" textLength="57" x="763" y="827.8857">service</text></g><!--cluster util--><g id="cluster_util"><path d="M399.5,796.8906 L428.5,796.8906 A3.75,3.75 0 0 1 431,799.3906 L438,819.1875 L716.5,819.1875 A2.5,2.5 0 0 1 719,821.6875 L719,1156.8906 A2.5,2.5 0 0 1 716.5,1159.3906 L399.5,1159.3906 A2.5,2.5 0 0 1 397,1156.8906 L397,799.3906 A2.5,2.5 0 0 1 399.5,796.8906 " fill="#DDDDDD" style="stroke:#000000;stroke-width:1.5;"/><line style="stroke:#000000;stroke-width:1.5;" x1="397" x2="438" y1="819.1875" y2="819.1875"/><text fill="#000000" font-family="sans-serif" font-size="14" font-weight="bold" lengthAdjust="spacing" textLength="28" x="401" y="811.8857">util</text></g><!--cluster resources--><g id="cluster_resources"><path d="M1056.5,339.8906 L1136.5,339.8906 A3.75,3.75 0 0 1 1139,342.3906 L1146,362.1875 L1658.5,362.1875 A2.5,2.5 0 0 1 1661,364.6875 L1661,995.8906 A2.5,2.5 0 0 1 1658.5,998.3906 L1056.5,998.3906 A2.5,2.5 0 0 1 1054,995.8906 L1054,342.3906 A2.5,2.5 0 0 1 1056.5,339.8906 " fill="none" style="stroke:#000000;stroke-width:1.5;"/><line style="stroke:#000000;stroke-width:1.5;" x1="1054" x2="1146" y1="362.1875" y2="362.1875"/><text fill="#000000" font-family="sans-serif" font-size="14" font-weight="bold" lengthAdjust="spacing" textLength="79" x="1058" y="354.8857">resources</text></g><!--cluster configurations--><g id="cluster_configurations"><path d="M1381.5,382.8906 L1502.5,382.8906 A3.75,3.75 0 0 1 1505,385.3906 L1512,405.1875 L1634.5,405.1875 A2.5,2.5 0 0 1 1637,407.6875 L1637,971.8906 A2.5,2.5 0 0 1 1634.5,974.3906 L1381.5,974.3906 A2.5,2.5 0 0 1 1379,971.8906 L1379,385.3906 A2.5,2.5 0 0 1 1381.5,382.8906 " fill="#DDDDDD" style="stroke:#000000;stroke-width:1.5;"/><line style="stroke:#000000;stroke-width:1.5;" x1="1379" x2="1512" y1="405.1875" y2="405.1875"/><text fill="#000000" font-family="sans-serif" font-size="14" font-weight="bold" lengthAdjust="spacing" textLength="120" x="1383" y="397.8857">configurations</text></g><!--cluster pipelines--><g id="cluster_pipelines"><path d="M1080.5,425.8906 L1153.5,425.8906 A3.75,3.75 0 0 1 1156,428.3906 L1163,448.1875 L1317.5,448.1875 A2.5,2.5 0 0 1 1320,450.6875 L1320,928.8906 A2.5,2.5 0 0 1 1317.5,931.3906 L1080.5,931.3906 A2.5,2.5 0 0 1 1078,928.8906 L1078,428.3906 A2.5,2.5 0 0 1 1080.5,425.8906 " fill="#DDDDDD" style="stroke:#000000;stroke-width:1.5;"/><line style="stroke:#000000;stroke-width:1.5;" x1="1078" x2="1163" y1="448.1875" y2="448.1875"/><text fill="#000000" font-family="sans-serif" font-size="14" font-weight="bold" lengthAdjust="spacing" textLength="72" x="1082" y="440.8857">pipelines</text></g><!--cluster Jenkins Host--><g id="cluster_Jenkins Host"><path d="M1064.4498,197.3812 C1072.0228,185.5677 1080.4811,186.3685 1087.3648,198.0534 C1092.2745,187.4915 1099.2983,189.2416 1105.8368,196.3507 C1112.9232,183.7604 1121.916,185.4002 1129.0994,196.2545 C1135.5384,184.7821 1147.1633,186.6153 1152.6599,197.2584 C1157.5741,189.1889 1166.1592,186.4332 1171.6442,196.6662 C1178.0874,183.0703 1187.9443,185.5833 1195.9373,195.0325 C1201.942,184.4086 1208.6939,183.2516 1216.9583,192.6615 C1224.457,183.5398 1232.4167,182.1914 1239.2669,193.374 C1248.2749,184.2693 1254.9947,185.5702 1260.0655,197.3038 C1265.4843,186.8048 1276.5935,185.677 1283.9957,194.8968 C1293.1106,184.6958 1300.3201,185.3535 1305.6623,198.4113 C1312.0393,187.9592 1320.3275,189.4789 1326.5256,198.602 C1332.6466,188.354 1341.3049,187.511 1347.5462,198.4828 C1356.0504,187.8594 1363.7555,187.2502 1370.3376,200.3309 C1382.2189,204.0502 1383.4985,211.2328 1376.8152,220.8209 C1387.4206,224.0702 1389.6102,229.9416 1381.7024,238.3519 C1388.3007,245.5937 1387.1536,254.7682 1376.9173,257.8861 C1386.6484,269.1725 1384.3336,276.746 1369.7514,280.2375 C1363.4136,291.3005 1355.8624,292.8479 1347.7768,281.9896 C1340.3571,293.9108 1331.0686,292.1998 1325.1502,280.5485 C1319.2936,291.1729 1311.0199,291.6641 1303.4638,282.4019 C1297.3493,292.1636 1290.226,292.2987 1283.7092,282.8149 C1275.7981,293.8377 1267.9909,294.169 1260.2658,282.6218 C1255.3856,294.7411 1245.3195,293.8415 1238.653,284.4135 C1231.2998,296.1052 1223.7088,294.5128 1216.7329,284.0405 C1209.2875,295.5232 1201.742,294.8234 1193.2391,285.2187 C1184.9579,295.5004 1177.5076,295.502 1171.5269,283.0241 C1164.5788,290.1388 1156.822,290.2052 1152.1696,280.3979 C1145.1327,290.6913 1138.356,291.3974 1129.7828,282.1588 C1122.1654,294.5206 1114.9562,293.3135 1106.4956,283.0257 C1098.6475,292.0577 1091.7457,288.0769 1087.4001,279.2755 C1081.645,291.1612 1071.1221,288.4228 1065.6092,279.0274 C1054.3247,275.1837 1052.7381,268.0948 1058.7937,258.4952 C1047.5425,253.8967 1047.8252,246.8091 1055.4343,238.9662 C1046.3351,229.6555 1048.207,222.6722 1059.9709,217.842 C1052.5908,209.1443 1052.6158,201.873 1064.4498,197.3812 " fill="none" style="stroke:#181818;stroke-width:1.0;"/><text fill="#000000" font-family="sans-serif" font-size="14" font-weight="bold" lengthAdjust="spacing" textLength="100" x="1165" y="214.8857">Jenkins Host</text></g><!--class Context--><g id="elem_Context"><rect codeLine="25" fill="#F1F1F1" height="56.2969" id="Context" rx="2.5" ry="2.5" style="stroke:#000000;stroke-width:1.0;" width="138" x="664" y="666.8906"/><ellipse cx="701.95" cy="682.8906" fill="#A9DCDF" rx="11" ry="11" style="stroke:#181818;stroke-width:1.0;"/><path d="M704.0281,684.7031 L704.4188,685.6875 L704.0281,685.6875 C703.575,685.6875 703.4656,685.7031 703.3094,685.8125 C703.0594,685.9688 702.9031,686.25 702.9031,686.5469 C702.9031,686.8125 703.0438,687.0625 703.2625,687.2188 C703.4031,687.3438 703.6063,687.3906 704.0281,687.3906 L706.3875,687.3906 C706.7469,687.3906 706.9656,687.3594 707.1063,687.2656 C707.3563,687.125 707.5125,686.8281 707.5125,686.5469 C707.5125,686.2656 707.3719,686.0156 707.1531,685.8594 C706.9813,685.7188 706.825,685.6875 706.3563,685.6875 L702.9656,677.4844 L699.2938,677.4844 C698.8406,677.4844 698.7156,677.5 698.5594,677.5938 C698.3094,677.7656 698.1531,678.0469 698.1531,678.3281 C698.1531,678.6094 698.2938,678.8594 698.5125,679.0313 C698.6844,679.1406 698.8563,679.1719 699.2938,679.1719 L700.3719,679.1719 L697.7313,685.6875 C697.3094,685.6875 697.1531,685.7031 696.9969,685.8125 C696.7469,685.9688 696.5906,686.25 696.5906,686.5469 C696.5906,687.1094 696.9656,687.3906 697.7156,687.3906 L699.9813,687.3906 C700.3406,687.3906 700.5594,687.3594 700.6844,687.2656 C700.95,687.125 701.0906,686.8281 701.0906,686.5469 C701.0906,686.2656 700.9656,686.0156 700.7469,685.8438 C700.575,685.7188 700.4344,685.6875 699.9813,685.6875 L699.5906,685.6875 L699.9813,684.7031 L704.0281,684.7031 Z M703.325,683 L700.6531,683 L701.9969,679.7344 L703.325,683 Z " fill="#000000"/><text fill="#000000" font-family="sans-serif" font-size="14" font-style="italic" lengthAdjust="spacing" textLength="55" x="721.05" y="687.7373">Context</text><line style="stroke:#000000;stroke-width:1.0;" x1="665" x2="801" y1="698.8906" y2="698.8906"/><polygon fill="none" points="675,707.5391,679,711.5391,675,715.5391,671,711.5391" style="stroke:#B38D22;stroke-width:1.0;"/><text fill="#000000" font-family="sans-serif" font-size="14" lengthAdjust="spacing" text-decoration="underline" textLength="112" x="684" y="715.8857">pipeline: Script</text></g><!--class Pipeline--><g id="elem_Pipeline"><rect codeLine="32" fill="#F1F1F1" height="170.3438" id="Pipeline" rx="2.5" ry="2.5" style="stroke:#000000;stroke-width:1.0;" width="172" x="225" y="398.8906"/><ellipse cx="277.75" cy="419.0234" fill="#ADD1B2" rx="11" ry="11" style="stroke:#181818;stroke-width:1.0;"/><path d="M280.0938,414.6953 C279.1563,414.2578 278.5625,414.1172 277.6875,414.1172 C275.0625,414.1172 273.0625,416.1953 273.0625,418.9141 L273.0625,420.0391 C273.0625,422.6172 275.1719,424.5078 278.0625,424.5078 C279.2813,424.5078 280.4375,424.2109 281.1875,423.6641 C281.7656,423.2578 282.0938,422.8047 282.0938,422.4141 C282.0938,421.9609 281.7031,421.5703 281.2344,421.5703 C281.0156,421.5703 280.8125,421.6484 280.625,421.8359 C280.1719,422.3203 280.1719,422.3203 279.9844,422.4141 C279.5625,422.6797 278.875,422.8047 278.1094,422.8047 C276.0625,422.8047 274.7656,421.7109 274.7656,420.0078 L274.7656,418.9141 C274.7656,417.1328 276.0156,415.8203 277.75,415.8203 C278.3281,415.8203 278.9375,415.9766 279.4063,416.2266 C279.8906,416.5078 280.0625,416.7266 280.1563,417.1328 C280.2188,417.5391 280.25,417.6641 280.3906,417.7891 C280.5313,417.9297 280.7656,418.0391 280.9844,418.0391 C281.25,418.0391 281.5156,417.8984 281.6875,417.6797 C281.7969,417.5234 281.8281,417.3359 281.8281,416.9141 L281.8281,415.4922 C281.8281,415.0547 281.8125,414.9297 281.7188,414.7734 C281.5625,414.5078 281.2813,414.3672 280.9844,414.3672 C280.6875,414.3672 280.4844,414.4609 280.2656,414.7734 L280.0938,414.6953 Z " fill="#000000"/><text fill="#000000" font-family="sans-serif" font-size="12" font-style="italic" lengthAdjust="spacing" textLength="47" x="303.75" y="415.0293">&#171;static&#187;</text><text fill="#000000" font-family="sans-serif" font-size="14" lengthAdjust="spacing" textLength="58" x="298.25" y="430.8545">Pipeline</text><line style="stroke:#000000;stroke-width:1.0;" x1="226" x2="396" y1="439.1563" y2="439.1563"/><rect fill="none" height="6" style="stroke:#C82930;stroke-width:1.0;" width="6" x="233" y="449.8047"/><text fill="#000000" font-family="sans-serif" font-size="14" lengthAdjust="spacing" textLength="79" x="245" y="456.1514">type: Type</text><rect fill="none" height="6" style="stroke:#C82930;stroke-width:1.0;" width="6" x="233" y="466.1016"/><text fill="#000000" font-family="sans-serif" font-size="14" lengthAdjust="spacing" textLength="73" x="245" y="472.4482">task: Task</text><rect fill="none" height="6" style="stroke:#C82930;stroke-width:1.0;" width="6" x="233" y="482.3984"/><text fill="#000000" font-family="sans-serif" font-size="14" lengthAdjust="spacing" textLength="146" x="245" y="488.7451">stages: List&lt;Stage&gt;</text><line style="stroke:#000000;stroke-width:1.0;" x1="226" x2="396" y1="496.0469" y2="496.0469"/><ellipse cx="236" cy="509.6953" fill="#84BE84" rx="3" ry="3" style="stroke:#038048;stroke-width:1.0;"/><text fill="#000000" font-family="sans-serif" font-size="14" lengthAdjust="spacing" textLength="138" x="245" y="513.042">run(String, Closure)</text><ellipse cx="236" cy="525.9922" fill="#84BE84" rx="3" ry="3" style="stroke:#038048;stroke-width:1.0;"/><text fill="#000000" font-family="sans-serif" font-size="14" lengthAdjust="spacing" textLength="50" x="245" y="529.3389">stage()</text><ellipse cx="236" cy="542.2891" fill="#84BE84" rx="3" ry="3" style="stroke:#038048;stroke-width:1.0;"/><text fill="#000000" font-family="sans-serif" font-size="14" lengthAdjust="spacing" textLength="26" x="245" y="545.6357">sh()</text><rect fill="#F24D5C" height="6" style="stroke:#C82930;stroke-width:1.0;" width="6" x="233" y="555.5859"/><text fill="#000000" font-family="sans-serif" font-size="14" lengthAdjust="spacing" textLength="78" x="245" y="561.9326">configure()</text></g><!--class Job--><g id="elem_Job"><rect codeLine="43" fill="#F1F1F1" height="146.0469" id="Job" rx="2.5" ry="2.5" style="stroke:#000000;stroke-width:1.0;" width="171" x="574.5" y="173.8906"/><ellipse cx="634.25" cy="194.0234" fill="#ADD1B2" rx="11" ry="11" style="stroke:#181818;stroke-width:1.0;"/><path d="M636.5938,189.6953 C635.6563,189.2578 635.0625,189.1172 634.1875,189.1172 C631.5625,189.1172 629.5625,191.1953 629.5625,193.9141 L629.5625,195.0391 C629.5625,197.6172 631.6719,199.5078 634.5625,199.5078 C635.7813,199.5078 636.9375,199.2109 637.6875,198.6641 C638.2656,198.2578 638.5938,197.8047 638.5938,197.4141 C638.5938,196.9609 638.2031,196.5703 637.7344,196.5703 C637.5156,196.5703 637.3125,196.6484 637.125,196.8359 C636.6719,197.3203 636.6719,197.3203 636.4844,197.4141 C636.0625,197.6797 635.375,197.8047 634.6094,197.8047 C632.5625,197.8047 631.2656,196.7109 631.2656,195.0078 L631.2656,193.9141 C631.2656,192.1328 632.5156,190.8203 634.25,190.8203 C634.8281,190.8203 635.4375,190.9766 635.9063,191.2266 C636.3906,191.5078 636.5625,191.7266 636.6563,192.1328 C636.7188,192.5391 636.75,192.6641 636.8906,192.7891 C637.0313,192.9297 637.2656,193.0391 637.4844,193.0391 C637.75,193.0391 638.0156,192.8984 638.1875,192.6797 C638.2969,192.5234 638.3281,192.3359 638.3281,191.9141 L638.3281,190.4922 C638.3281,190.0547 638.3125,189.9297 638.2188,189.7734 C638.0625,189.5078 637.7813,189.3672 637.4844,189.3672 C637.1875,189.3672 636.9844,189.4609 636.7656,189.7734 L636.5938,189.6953 Z " fill="#000000"/><text fill="#000000" font-family="sans-serif" font-size="12" font-style="italic" lengthAdjust="spacing" textLength="47" x="652.75" y="190.0293">&#171;static&#187;</text><text fill="#000000" font-family="sans-serif" font-size="14" lengthAdjust="spacing" textLength="23" x="664.75" y="205.8545">Job</text><line style="stroke:#000000;stroke-width:1.0;" x1="575.5" x2="744.5" y1="214.1563" y2="214.1563"/><ellipse cx="585.5" cy="227.8047" fill="none" rx="3" ry="3" style="stroke:#038048;stroke-width:1.0;"/><text fill="#000000" font-family="sans-serif" font-size="14" lengthAdjust="spacing" textLength="93" x="594.5" y="231.1514">name: String</text><ellipse cx="585.5" cy="244.1016" fill="none" rx="3" ry="3" style="stroke:#038048;stroke-width:1.0;"/><text fill="#000000" font-family="sans-serif" font-size="14" lengthAdjust="spacing" textLength="145" x="594.5" y="247.4482">buildNumber: String</text><ellipse cx="585.5" cy="260.3984" fill="none" rx="3" ry="3" style="stroke:#038048;stroke-width:1.0;"/><text fill="#000000" font-family="sans-serif" font-size="14" lengthAdjust="spacing" textLength="129" x="594.5" y="263.7451">buildName: String</text><ellipse cx="585.5" cy="276.6953" fill="none" rx="3" ry="3" style="stroke:#038048;stroke-width:1.0;"/><text fill="#000000" font-family="sans-serif" font-size="14" lengthAdjust="spacing" textLength="77" x="594.5" y="280.042">tag: String</text><ellipse cx="585.5" cy="292.9922" fill="none" rx="3" ry="3" style="stroke:#038048;stroke-width:1.0;"/><text fill="#000000" font-family="sans-serif" font-size="14" lengthAdjust="spacing" textLength="71" x="594.5" y="296.3389">url: String</text><ellipse cx="585.5" cy="309.2891" fill="none" rx="3" ry="3" style="stroke:#038048;stroke-width:1.0;"/><text fill="#000000" font-family="sans-serif" font-size="14" lengthAdjust="spacing" textLength="106" x="594.5" y="312.6357">baseUrl: String</text></g><!--class Config--><g id="elem_Config"><rect codeLine="52" fill="#F1F1F1" height="154.0469" id="Config" rx="2.5" ry="2.5" style="stroke:#000000;stroke-width:1.0;" width="170" x="781" y="169.8906"/><ellipse cx="838.25" cy="190.0234" fill="#ADD1B2" rx="11" ry="11" style="stroke:#181818;stroke-width:1.0;"/><path d="M840.5938,185.6953 C839.6563,185.2578 839.0625,185.1172 838.1875,185.1172 C835.5625,185.1172 833.5625,187.1953 833.5625,189.9141 L833.5625,191.0391 C833.5625,193.6172 835.6719,195.5078 838.5625,195.5078 C839.7813,195.5078 840.9375,195.2109 841.6875,194.6641 C842.2656,194.2578 842.5938,193.8047 842.5938,193.4141 C842.5938,192.9609 842.2031,192.5703 841.7344,192.5703 C841.5156,192.5703 841.3125,192.6484 841.125,192.8359 C840.6719,193.3203 840.6719,193.3203 840.4844,193.4141 C840.0625,193.6797 839.375,193.8047 838.6094,193.8047 C836.5625,193.8047 835.2656,192.7109 835.2656,191.0078 L835.2656,189.9141 C835.2656,188.1328 836.5156,186.8203 838.25,186.8203 C838.8281,186.8203 839.4375,186.9766 839.9063,187.2266 C840.3906,187.5078 840.5625,187.7266 840.6563,188.1328 C840.7188,188.5391 840.75,188.6641 840.8906,188.7891 C841.0313,188.9297 841.2656,189.0391 841.4844,189.0391 C841.75,189.0391 842.0156,188.8984 842.1875,188.6797 C842.2969,188.5234 842.3281,188.3359 842.3281,187.9141 L842.3281,186.4922 C842.3281,186.0547 842.3125,185.9297 842.2188,185.7734 C842.0625,185.5078 841.7813,185.3672 841.4844,185.3672 C841.1875,185.3672 840.9844,185.4609 840.7656,185.7734 L840.5938,185.6953 Z " fill="#000000"/><text fill="#000000" font-family="sans-serif" font-size="12" font-style="italic" lengthAdjust="spacing" textLength="47" x="858.75" y="186.0293">&#171;static&#187;</text><text fill="#000000" font-family="sans-serif" font-size="14" lengthAdjust="spacing" textLength="47" x="858.75" y="201.8545">Config</text><line style="stroke:#000000;stroke-width:1.0;" x1="782" x2="950" y1="210.1563" y2="210.1563"/><ellipse cx="792" cy="223.8047" fill="none" rx="3" ry="3" style="stroke:#038048;stroke-width:1.0;"/><text fill="#000000" font-family="sans-serif" font-size="14" lengthAdjust="spacing" textLength="116" x="801" y="227.1514">properties: Map</text><ellipse cx="792" cy="240.1016" fill="none" rx="3" ry="3" style="stroke:#038048;stroke-width:1.0;"/><text fill="#000000" font-family="sans-serif" font-size="14" lengthAdjust="spacing" textLength="123" x="801" y="243.4482">parameters: Map</text><line style="stroke:#000000;stroke-width:1.0;" x1="782" x2="950" y1="250.75" y2="250.75"/><ellipse cx="792" cy="264.3984" fill="#84BE84" rx="3" ry="3" style="stroke:#038048;stroke-width:1.0;"/><text fill="#000000" font-family="sans-serif" font-size="14" lengthAdjust="spacing" textLength="106" x="801" y="267.7451">getGlobalFile()</text><ellipse cx="792" cy="280.6953" fill="#84BE84" rx="3" ry="3" style="stroke:#038048;stroke-width:1.0;"/><text fill="#000000" font-family="sans-serif" font-size="14" lengthAdjust="spacing" textLength="112" x="801" y="284.042">getProjectFile()</text><rect fill="#F24D5C" height="6" style="stroke:#C82930;stroke-width:1.0;" width="6" x="789" y="293.9922"/><text fill="#000000" font-family="sans-serif" font-size="14" lengthAdjust="spacing" textLength="50" x="801" y="300.3389">parse()</text><rect fill="#F24D5C" height="6" style="stroke:#C82930;stroke-width:1.0;" width="6" x="789" y="310.2891"/><text fill="#000000" font-family="sans-serif" font-size="14" lengthAdjust="spacing" textLength="144" x="801" y="316.6357">updateParameters()</text></g><!--class Stage--><g id="elem_Stage"><rect codeLine="62" fill="#F1F1F1" height="129.4844" id="Stage" rx="2.5" ry="2.5" style="stroke:#000000;stroke-width:1.0;" width="171" x="494.5" y="419.3906"/><ellipse cx="554.75" cy="435.3906" fill="#ADD1B2" rx="11" ry="11" style="stroke:#181818;stroke-width:1.0;"/><path d="M557.0938,431.0625 C556.1563,430.625 555.5625,430.4844 554.6875,430.4844 C552.0625,430.4844 550.0625,432.5625 550.0625,435.2813 L550.0625,436.4063 C550.0625,438.9844 552.1719,440.875 555.0625,440.875 C556.2813,440.875 557.4375,440.5781 558.1875,440.0313 C558.7656,439.625 559.0938,439.1719 559.0938,438.7813 C559.0938,438.3281 558.7031,437.9375 558.2344,437.9375 C558.0156,437.9375 557.8125,438.0156 557.625,438.2031 C557.1719,438.6875 557.1719,438.6875 556.9844,438.7813 C556.5625,439.0469 555.875,439.1719 555.1094,439.1719 C553.0625,439.1719 551.7656,438.0781 551.7656,436.375 L551.7656,435.2813 C551.7656,433.5 553.0156,432.1875 554.75,432.1875 C555.3281,432.1875 555.9375,432.3438 556.4063,432.5938 C556.8906,432.875 557.0625,433.0938 557.1563,433.5 C557.2188,433.9063 557.25,434.0313 557.3906,434.1563 C557.5313,434.2969 557.7656,434.4063 557.9844,434.4063 C558.25,434.4063 558.5156,434.2656 558.6875,434.0469 C558.7969,433.8906 558.8281,433.7031 558.8281,433.2813 L558.8281,431.8594 C558.8281,431.4219 558.8125,431.2969 558.7188,431.1406 C558.5625,430.875 558.2813,430.7344 557.9844,430.7344 C557.6875,430.7344 557.4844,430.8281 557.2656,431.1406 L557.0938,431.0625 Z " fill="#000000"/><text fill="#000000" font-family="sans-serif" font-size="14" lengthAdjust="spacing" textLength="42" x="575.25" y="440.2373">Stage</text><line style="stroke:#000000;stroke-width:1.0;" x1="495.5" x2="664.5" y1="451.3906" y2="451.3906"/><ellipse cx="505.5" cy="465.0391" fill="none" rx="3" ry="3" style="stroke:#038048;stroke-width:1.0;"/><text fill="#000000" font-family="sans-serif" font-size="14" lengthAdjust="spacing" text-decoration="underline" textLength="145" x="514.5" y="468.3857">globalStatus: Status</text><rect fill="none" height="6" style="stroke:#C82930;stroke-width:1.0;" width="6" x="502.5" y="478.3359"/><text fill="#000000" font-family="sans-serif" font-size="14" lengthAdjust="spacing" textLength="93" x="514.5" y="484.6826">name: String</text><rect fill="none" height="6" style="stroke:#C82930;stroke-width:1.0;" width="6" x="502.5" y="494.6328"/><text fill="#000000" font-family="sans-serif" font-size="14" lengthAdjust="spacing" textLength="102" x="514.5" y="500.9795">steps: Closure</text><rect fill="none" height="6" style="stroke:#C82930;stroke-width:1.0;" width="6" x="502.5" y="510.9297"/><text fill="#000000" font-family="sans-serif" font-size="14" lengthAdjust="spacing" textLength="99" x="514.5" y="517.2764">status: Status</text><line style="stroke:#000000;stroke-width:1.0;" x1="495.5" x2="664.5" y1="524.5781" y2="524.5781"/><ellipse cx="505.5" cy="538.2266" fill="#84BE84" rx="3" ry="3" style="stroke:#038048;stroke-width:1.0;"/><text fill="#000000" font-family="sans-serif" font-size="14" lengthAdjust="spacing" textLength="68" x="514.5" y="541.5732">execute()</text></g><!--class Type--><g id="elem_Type"><rect codeLine="71" fill="#F1F1F1" height="88.8906" id="Type" rx="2.5" ry="2.5" style="stroke:#000000;stroke-width:1.0;" width="128" x="85" y="202.3906"/><ellipse cx="127" cy="218.3906" fill="#EB937F" rx="11" ry="11" style="stroke:#181818;stroke-width:1.0;"/><path d="M125.7969,219.2656 L127.25,219.2656 L127.25,219.375 C127.25,219.7813 127.2813,219.9375 127.3594,220.0938 C127.5156,220.3438 127.7969,220.5 128.0938,220.5 C128.3438,220.5 128.6094,220.3594 128.7656,220.1406 C128.8906,219.9844 128.9219,219.8281 128.9219,219.375 L128.9219,217.4531 C128.9219,217.2969 128.9219,217.25 128.9063,217.0938 C128.8438,216.625 128.5313,216.3125 128.0781,216.3125 C127.8281,216.3125 127.5625,216.4531 127.3906,216.6719 C127.2813,216.8438 127.25,217 127.25,217.4531 L127.25,217.5781 L125.7969,217.5781 L125.7969,215.1719 L129.7813,215.1719 L129.7813,216.0313 C129.7813,216.4375 129.8125,216.6094 129.8906,216.7656 C130.0625,217.0156 130.3438,217.1719 130.625,217.1719 C130.8906,217.1719 131.1563,217.0313 131.3281,216.8125 C131.4375,216.6406 131.4688,216.5 131.4688,216.0313 L131.4688,213.4844 L123.8438,213.4844 C123.4063,213.4844 123.2813,213.5 123.125,213.5938 C122.875,213.75 122.7188,214.0469 122.7188,214.3281 C122.7188,214.6094 122.8594,214.8594 123.0781,215.0313 C123.2344,215.1406 123.4219,215.1719 123.8438,215.1719 L124.0938,215.1719 L124.0938,221.6875 L123.8438,221.6875 C123.4375,221.6875 123.2813,221.7031 123.125,221.8125 C122.875,221.9844 122.7188,222.25 122.7188,222.5469 C122.7188,222.8125 122.8594,223.0625 123.0781,223.2188 C123.2188,223.3438 123.4531,223.3906 123.8438,223.3906 L131.8438,223.3906 L131.8438,220.8125 C131.8438,220.375 131.8125,220.2344 131.7344,220.0781 C131.5625,219.8281 131.2813,219.6719 131,219.6719 C130.7344,219.6719 130.4688,219.7813 130.2969,220.0313 C130.1875,220.1875 130.1563,220.3281 130.1563,220.8125 L130.1563,221.6875 L125.7969,221.6875 L125.7969,219.2656 Z " fill="#000000"/><text fill="#000000" font-family="sans-serif" font-size="14" lengthAdjust="spacing" textLength="36" x="147" y="223.2373">Type</text><line style="stroke:#000000;stroke-width:1.0;" x1="86" x2="212" y1="234.3906" y2="234.3906"/><ellipse cx="96" cy="248.0391" fill="none" rx="3" ry="3" style="stroke:#038048;stroke-width:1.0;"/><text fill="#000000" font-family="sans-serif" font-size="14" lengthAdjust="spacing" textLength="99" x="105" y="251.3857">NOT_DEFINED</text><ellipse cx="96" cy="264.3359" fill="none" rx="3" ry="3" style="stroke:#038048;stroke-width:1.0;"/><text fill="#000000" font-family="sans-serif" font-size="14" lengthAdjust="spacing" textLength="60" x="105" y="267.6826">CLASSIC</text><ellipse cx="96" cy="280.6328" fill="none" rx="3" ry="3" style="stroke:#038048;stroke-width:1.0;"/><text fill="#000000" font-family="sans-serif" font-size="14" lengthAdjust="spacing" textLength="102" x="105" y="283.9795">MULTIBRANCH</text></g><!--class Task--><g id="elem_Task"><rect codeLine="77" fill="#F1F1F1" height="105.1875" id="Task" rx="2.5" ry="2.5" style="stroke:#000000;stroke-width:1.0;" width="125" x="248.5" y="194.3906"/><ellipse cx="290.5" cy="210.3906" fill="#EB937F" rx="11" ry="11" style="stroke:#181818;stroke-width:1.0;"/><path d="M289.2969,211.2656 L290.75,211.2656 L290.75,211.375 C290.75,211.7813 290.7813,211.9375 290.8594,212.0938 C291.0156,212.3438 291.2969,212.5 291.5938,212.5 C291.8438,212.5 292.1094,212.3594 292.2656,212.1406 C292.3906,211.9844 292.4219,211.8281 292.4219,211.375 L292.4219,209.4531 C292.4219,209.2969 292.4219,209.25 292.4063,209.0938 C292.3438,208.625 292.0313,208.3125 291.5781,208.3125 C291.3281,208.3125 291.0625,208.4531 290.8906,208.6719 C290.7813,208.8438 290.75,209 290.75,209.4531 L290.75,209.5781 L289.2969,209.5781 L289.2969,207.1719 L293.2813,207.1719 L293.2813,208.0313 C293.2813,208.4375 293.3125,208.6094 293.3906,208.7656 C293.5625,209.0156 293.8438,209.1719 294.125,209.1719 C294.3906,209.1719 294.6563,209.0313 294.8281,208.8125 C294.9375,208.6406 294.9688,208.5 294.9688,208.0313 L294.9688,205.4844 L287.3438,205.4844 C286.9063,205.4844 286.7813,205.5 286.625,205.5938 C286.375,205.75 286.2188,206.0469 286.2188,206.3281 C286.2188,206.6094 286.3594,206.8594 286.5781,207.0313 C286.7344,207.1406 286.9219,207.1719 287.3438,207.1719 L287.5938,207.1719 L287.5938,213.6875 L287.3438,213.6875 C286.9375,213.6875 286.7813,213.7031 286.625,213.8125 C286.375,213.9844 286.2188,214.25 286.2188,214.5469 C286.2188,214.8125 286.3594,215.0625 286.5781,215.2188 C286.7188,215.3438 286.9531,215.3906 287.3438,215.3906 L295.3438,215.3906 L295.3438,212.8125 C295.3438,212.375 295.3125,212.2344 295.2344,212.0781 C295.0625,211.8281 294.7813,211.6719 294.5,211.6719 C294.2344,211.6719 293.9688,211.7813 293.7969,212.0313 C293.6875,212.1875 293.6563,212.3281 293.6563,212.8125 L293.6563,213.6875 L289.2969,213.6875 L289.2969,211.2656 Z " fill="#000000"/><text fill="#000000" font-family="sans-serif" font-size="14" lengthAdjust="spacing" textLength="33" x="310.5" y="215.2373">Task</text><line style="stroke:#000000;stroke-width:1.0;" x1="249.5" x2="372.5" y1="226.3906" y2="226.3906"/><ellipse cx="259.5" cy="240.0391" fill="none" rx="3" ry="3" style="stroke:#038048;stroke-width:1.0;"/><text fill="#000000" font-family="sans-serif" font-size="14" lengthAdjust="spacing" textLength="99" x="268.5" y="243.3857">NOT_DEFINED</text><ellipse cx="259.5" cy="256.3359" fill="none" rx="3" ry="3" style="stroke:#038048;stroke-width:1.0;"/><text fill="#000000" font-family="sans-serif" font-size="14" lengthAdjust="spacing" textLength="42" x="268.5" y="259.6826">BUILD</text><ellipse cx="259.5" cy="272.6328" fill="none" rx="3" ry="3" style="stroke:#038048;stroke-width:1.0;"/><text fill="#000000" font-family="sans-serif" font-size="14" lengthAdjust="spacing" textLength="61" x="268.5" y="275.9795">TESTING</text><ellipse cx="259.5" cy="288.9297" fill="none" rx="3" ry="3" style="stroke:#038048;stroke-width:1.0;"/><text fill="#000000" font-family="sans-serif" font-size="14" lengthAdjust="spacing" textLength="97" x="268.5" y="292.2764">DEPLOYMENT</text></g><!--class Status--><g id="elem_Status"><rect codeLine="84" fill="#F1F1F1" height="137.7813" id="Status" rx="2.5" ry="2.5" style="stroke:#000000;stroke-width:1.0;" width="130" x="409" y="177.8906"/><ellipse cx="447.4" cy="193.8906" fill="#EB937F" rx="11" ry="11" style="stroke:#181818;stroke-width:1.0;"/><path d="M446.1969,194.7656 L447.65,194.7656 L447.65,194.875 C447.65,195.2813 447.6813,195.4375 447.7594,195.5938 C447.9156,195.8438 448.1969,196 448.4938,196 C448.7438,196 449.0094,195.8594 449.1656,195.6406 C449.2906,195.4844 449.3219,195.3281 449.3219,194.875 L449.3219,192.9531 C449.3219,192.7969 449.3219,192.75 449.3063,192.5938 C449.2438,192.125 448.9313,191.8125 448.4781,191.8125 C448.2281,191.8125 447.9625,191.9531 447.7906,192.1719 C447.6813,192.3438 447.65,192.5 447.65,192.9531 L447.65,193.0781 L446.1969,193.0781 L446.1969,190.6719 L450.1813,190.6719 L450.1813,191.5313 C450.1813,191.9375 450.2125,192.1094 450.2906,192.2656 C450.4625,192.5156 450.7438,192.6719 451.025,192.6719 C451.2906,192.6719 451.5563,192.5313 451.7281,192.3125 C451.8375,192.1406 451.8688,192 451.8688,191.5313 L451.8688,188.9844 L444.2438,188.9844 C443.8063,188.9844 443.6813,189 443.525,189.0938 C443.275,189.25 443.1188,189.5469 443.1188,189.8281 C443.1188,190.1094 443.2594,190.3594 443.4781,190.5313 C443.6344,190.6406 443.8219,190.6719 444.2438,190.6719 L444.4938,190.6719 L444.4938,197.1875 L444.2438,197.1875 C443.8375,197.1875 443.6813,197.2031 443.525,197.3125 C443.275,197.4844 443.1188,197.75 443.1188,198.0469 C443.1188,198.3125 443.2594,198.5625 443.4781,198.7188 C443.6188,198.8438 443.8531,198.8906 444.2438,198.8906 L452.2438,198.8906 L452.2438,196.3125 C452.2438,195.875 452.2125,195.7344 452.1344,195.5781 C451.9625,195.3281 451.6813,195.1719 451.4,195.1719 C451.1344,195.1719 450.8688,195.2813 450.6969,195.5313 C450.5875,195.6875 450.5563,195.8281 450.5563,196.3125 L450.5563,197.1875 L446.1969,197.1875 L446.1969,194.7656 Z " fill="#000000"/><text fill="#000000" font-family="sans-serif" font-size="14" lengthAdjust="spacing" textLength="46" x="466.6" y="198.7373">Status</text><line style="stroke:#000000;stroke-width:1.0;" x1="410" x2="538" y1="209.8906" y2="209.8906"/><ellipse cx="420" cy="223.5391" fill="none" rx="3" ry="3" style="stroke:#038048;stroke-width:1.0;"/><text fill="#000000" font-family="sans-serif" font-size="14" lengthAdjust="spacing" textLength="104" x="429" y="226.8857">NOT_STARTED</text><ellipse cx="420" cy="239.8359" fill="none" rx="3" ry="3" style="stroke:#038048;stroke-width:1.0;"/><text fill="#000000" font-family="sans-serif" font-size="14" lengthAdjust="spacing" textLength="61" x="429" y="243.1826">SKIPPED</text><ellipse cx="420" cy="256.1328" fill="none" rx="3" ry="3" style="stroke:#038048;stroke-width:1.0;"/><text fill="#000000" font-family="sans-serif" font-size="14" lengthAdjust="spacing" textLength="67" x="429" y="259.4795">STARTED</text><ellipse cx="420" cy="272.4297" fill="none" rx="3" ry="3" style="stroke:#038048;stroke-width:1.0;"/><text fill="#000000" font-family="sans-serif" font-size="14" lengthAdjust="spacing" textLength="65" x="429" y="275.7764">SUCCESS</text><ellipse cx="420" cy="288.7266" fill="none" rx="3" ry="3" style="stroke:#038048;stroke-width:1.0;"/><text fill="#000000" font-family="sans-serif" font-size="14" lengthAdjust="spacing" textLength="74" x="429" y="292.0732">UNSTABLE</text><ellipse cx="420" cy="305.0234" fill="none" rx="3" ry="3" style="stroke:#038048;stroke-width:1.0;"/><text fill="#000000" font-family="sans-serif" font-size="14" lengthAdjust="spacing" textLength="50" x="429" y="308.3701">FAILED</text></g><!--class Module--><g id="elem_Module"><rect codeLine="101" fill="#F1F1F1" height="129.4844" id="Module" rx="2.5" ry="2.5" style="stroke:#000000;stroke-width:1.0;" width="198" x="135" y="827.8906"/><ellipse cx="203.75" cy="843.8906" fill="#A9DCDF" rx="11" ry="11" style="stroke:#181818;stroke-width:1.0;"/><path d="M205.8281,845.7031 L206.2188,846.6875 L205.8281,846.6875 C205.375,846.6875 205.2656,846.7031 205.1094,846.8125 C204.8594,846.9688 204.7031,847.25 204.7031,847.5469 C204.7031,847.8125 204.8438,848.0625 205.0625,848.2188 C205.2031,848.3438 205.4063,848.3906 205.8281,848.3906 L208.1875,848.3906 C208.5469,848.3906 208.7656,848.3594 208.9063,848.2656 C209.1563,848.125 209.3125,847.8281 209.3125,847.5469 C209.3125,847.2656 209.1719,847.0156 208.9531,846.8594 C208.7813,846.7188 208.625,846.6875 208.1563,846.6875 L204.7656,838.4844 L201.0938,838.4844 C200.6406,838.4844 200.5156,838.5 200.3594,838.5938 C200.1094,838.7656 199.9531,839.0469 199.9531,839.3281 C199.9531,839.6094 200.0938,839.8594 200.3125,840.0313 C200.4844,840.1406 200.6563,840.1719 201.0938,840.1719 L202.1719,840.1719 L199.5313,846.6875 C199.1094,846.6875 198.9531,846.7031 198.7969,846.8125 C198.5469,846.9688 198.3906,847.25 198.3906,847.5469 C198.3906,848.1094 198.7656,848.3906 199.5156,848.3906 L201.7813,848.3906 C202.1406,848.3906 202.3594,848.3594 202.4844,848.2656 C202.75,848.125 202.8906,847.8281 202.8906,847.5469 C202.8906,847.2656 202.7656,847.0156 202.5469,846.8438 C202.375,846.7188 202.2344,846.6875 201.7813,846.6875 L201.3906,846.6875 L201.7813,845.7031 L205.8281,845.7031 Z M205.125,844 L202.4531,844 L203.7969,840.7344 L205.125,844 Z " fill="#000000"/><text fill="#000000" font-family="sans-serif" font-size="14" font-style="italic" lengthAdjust="spacing" textLength="52" x="224.25" y="848.7373">Module</text><line style="stroke:#000000;stroke-width:1.0;" x1="136" x2="332" y1="859.8906" y2="859.8906"/><ellipse cx="146" cy="873.5391" fill="none" rx="3" ry="3" style="stroke:#038048;stroke-width:1.0;"/><text fill="#000000" font-family="sans-serif" font-size="14" lengthAdjust="spacing" text-decoration="underline" textLength="168" x="155" y="876.8857">modules: List&lt;Module&gt;</text><ellipse cx="146" cy="889.8359" fill="none" rx="3" ry="3" style="stroke:#038048;stroke-width:1.0;"/><text fill="#000000" font-family="sans-serif" font-size="14" font-style="italic" lengthAdjust="spacing" textLength="92" x="155" y="893.1826">name: String</text><line style="stroke:#000000;stroke-width:1.0;" x1="136" x2="332" y1="900.4844" y2="900.4844"/><ellipse cx="146" cy="914.1328" fill="#84BE84" rx="3" ry="3" style="stroke:#038048;stroke-width:1.0;"/><text fill="#000000" font-family="sans-serif" font-size="14" lengthAdjust="spacing" text-decoration="underline" textLength="172" x="155" y="917.4795">execute(String): Module</text><polygon fill="#FFFF44" points="146,925.4297,150,929.4297,146,933.4297,142,929.4297" style="stroke:#B38D22;stroke-width:1.0;"/><text fill="#000000" font-family="sans-serif" font-size="14" font-style="italic" lengthAdjust="spacing" textLength="32" x="155" y="933.7764">init()</text><polygon fill="#FFFF44" points="146,941.7266,150,945.7266,146,949.7266,142,945.7266" style="stroke:#B38D22;stroke-width:1.0;"/><text fill="#000000" font-family="sans-serif" font-size="14" font-style="italic" lengthAdjust="spacing" textLength="67" x="155" y="950.0732">execute()</text></g><!--class Checkout--><g id="elem_Checkout"><rect codeLine="110" fill="#F1F1F1" height="129.4844" id="Checkout" rx="2.5" ry="2.5" style="stroke:#000000;stroke-width:1.0;" width="129" x="169.5" y="1018.3906"/><ellipse cx="197.1" cy="1034.3906" fill="#ADD1B2" rx="11" ry="11" style="stroke:#181818;stroke-width:1.0;"/><path d="M199.4438,1030.0625 C198.5063,1029.625 197.9125,1029.4844 197.0375,1029.4844 C194.4125,1029.4844 192.4125,1031.5625 192.4125,1034.2813 L192.4125,1035.4063 C192.4125,1037.9844 194.5219,1039.875 197.4125,1039.875 C198.6313,1039.875 199.7875,1039.5781 200.5375,1039.0313 C201.1156,1038.625 201.4438,1038.1719 201.4438,1037.7813 C201.4438,1037.3281 201.0531,1036.9375 200.5844,1036.9375 C200.3656,1036.9375 200.1625,1037.0156 199.975,1037.2031 C199.5219,1037.6875 199.5219,1037.6875 199.3344,1037.7813 C198.9125,1038.0469 198.225,1038.1719 197.4594,1038.1719 C195.4125,1038.1719 194.1156,1037.0781 194.1156,1035.375 L194.1156,1034.2813 C194.1156,1032.5 195.3656,1031.1875 197.1,1031.1875 C197.6781,1031.1875 198.2875,1031.3438 198.7563,1031.5938 C199.2406,1031.875 199.4125,1032.0938 199.5063,1032.5 C199.5688,1032.9063 199.6,1033.0313 199.7406,1033.1563 C199.8813,1033.2969 200.1156,1033.4063 200.3344,1033.4063 C200.6,1033.4063 200.8656,1033.2656 201.0375,1033.0469 C201.1469,1032.8906 201.1781,1032.7031 201.1781,1032.2813 L201.1781,1030.8594 C201.1781,1030.4219 201.1625,1030.2969 201.0688,1030.1406 C200.9125,1029.875 200.6313,1029.7344 200.3344,1029.7344 C200.0375,1029.7344 199.8344,1029.8281 199.6156,1030.1406 L199.4438,1030.0625 Z " fill="#000000"/><text fill="#000000" font-family="sans-serif" font-size="14" lengthAdjust="spacing" textLength="69" x="213.9" y="1039.2373">Checkout</text><line style="stroke:#000000;stroke-width:1.0;" x1="170.5" x2="297.5" y1="1050.3906" y2="1050.3906"/><ellipse cx="180.5" cy="1064.0391" fill="none" rx="3" ry="3" style="stroke:#038048;stroke-width:1.0;"/><text fill="#000000" font-family="sans-serif" font-size="14" lengthAdjust="spacing" textLength="93" x="189.5" y="1067.3857">name: String</text><ellipse cx="180.5" cy="1080.3359" fill="none" rx="3" ry="3" style="stroke:#038048;stroke-width:1.0;"/><text fill="#000000" font-family="sans-serif" font-size="14" lengthAdjust="spacing" textLength="71" x="189.5" y="1083.6826">url: String</text><ellipse cx="180.5" cy="1096.6328" fill="none" rx="3" ry="3" style="stroke:#038048;stroke-width:1.0;"/><text fill="#000000" font-family="sans-serif" font-size="14" lengthAdjust="spacing" textLength="103" x="189.5" y="1099.9795">branch: String</text><line style="stroke:#000000;stroke-width:1.0;" x1="170.5" x2="297.5" y1="1107.2813" y2="1107.2813"/><rect fill="#F24D5C" height="6" style="stroke:#C82930;stroke-width:1.0;" width="6" x="177.5" y="1117.9297"/><text fill="#000000" font-family="sans-serif" font-size="14" lengthAdjust="spacing" textLength="34" x="189.5" y="1124.2764">init()</text><rect fill="#F24D5C" height="6" style="stroke:#C82930;stroke-width:1.0;" width="6" x="177.5" y="1134.2266"/><text fill="#000000" font-family="sans-serif" font-size="14" lengthAdjust="spacing" textLength="68" x="189.5" y="1140.5732">execute()</text></g><!--class Jenkins--><g id="elem_Jenkins"><rect codeLine="123" fill="#F1F1F1" height="72.5938" id="Jenkins" rx="2.5" ry="2.5" style="stroke:#000000;stroke-width:1.0;" width="104" x="783" y="855.8906"/><ellipse cx="807.45" cy="871.8906" fill="#ADD1B2" rx="11" ry="11" style="stroke:#181818;stroke-width:1.0;"/><path d="M809.7938,867.5625 C808.8563,867.125 808.2625,866.9844 807.3875,866.9844 C804.7625,866.9844 802.7625,869.0625 802.7625,871.7813 L802.7625,872.9063 C802.7625,875.4844 804.8719,877.375 807.7625,877.375 C808.9813,877.375 810.1375,877.0781 810.8875,876.5313 C811.4656,876.125 811.7938,875.6719 811.7938,875.2813 C811.7938,874.8281 811.4031,874.4375 810.9344,874.4375 C810.7156,874.4375 810.5125,874.5156 810.325,874.7031 C809.8719,875.1875 809.8719,875.1875 809.6844,875.2813 C809.2625,875.5469 808.575,875.6719 807.8094,875.6719 C805.7625,875.6719 804.4656,874.5781 804.4656,872.875 L804.4656,871.7813 C804.4656,870 805.7156,868.6875 807.45,868.6875 C808.0281,868.6875 808.6375,868.8438 809.1063,869.0938 C809.5906,869.375 809.7625,869.5938 809.8563,870 C809.9188,870.4063 809.95,870.5313 810.0906,870.6563 C810.2313,870.7969 810.4656,870.9063 810.6844,870.9063 C810.95,870.9063 811.2156,870.7656 811.3875,870.5469 C811.4969,870.3906 811.5281,870.2031 811.5281,869.7813 L811.5281,868.3594 C811.5281,867.9219 811.5125,867.7969 811.4188,867.6406 C811.2625,867.375 810.9813,867.2344 810.6844,867.2344 C810.3875,867.2344 810.1844,867.3281 809.9656,867.6406 L809.7938,867.5625 Z " fill="#000000"/><text fill="#000000" font-family="sans-serif" font-size="14" lengthAdjust="spacing" textLength="51" x="823.55" y="876.7373">Jenkins</text><line style="stroke:#000000;stroke-width:1.0;" x1="784" x2="886" y1="887.8906" y2="887.8906"/><ellipse cx="794" cy="901.5391" fill="#84BE84" rx="3" ry="3" style="stroke:#038048;stroke-width:1.0;"/><text fill="#000000" font-family="sans-serif" font-size="14" lengthAdjust="spacing" textLength="62" x="803" y="904.8857">publish()</text><ellipse cx="794" cy="917.8359" fill="#84BE84" rx="3" ry="3" style="stroke:#038048;stroke-width:1.0;"/><text fill="#000000" font-family="sans-serif" font-size="14" lengthAdjust="spacing" textLength="78" x="803" y="921.1826">download()</text></g><!--class DockerHub--><g id="elem_DockerHub"><rect codeLine="128" fill="#F1F1F1" height="56.2969" id="DockerHub" rx="2.5" ry="2.5" style="stroke:#000000;stroke-width:1.0;" width="112" x="783" y="1054.8906"/><ellipse cx="798" cy="1070.8906" fill="#ADD1B2" rx="11" ry="11" style="stroke:#181818;stroke-width:1.0;"/><path d="M800.3438,1066.5625 C799.4063,1066.125 798.8125,1065.9844 797.9375,1065.9844 C795.3125,1065.9844 793.3125,1068.0625 793.3125,1070.7813 L793.3125,1071.9063 C793.3125,1074.4844 795.4219,1076.375 798.3125,1076.375 C799.5313,1076.375 800.6875,1076.0781 801.4375,1075.5313 C802.0156,1075.125 802.3438,1074.6719 802.3438,1074.2813 C802.3438,1073.8281 801.9531,1073.4375 801.4844,1073.4375 C801.2656,1073.4375 801.0625,1073.5156 800.875,1073.7031 C800.4219,1074.1875 800.4219,1074.1875 800.2344,1074.2813 C799.8125,1074.5469 799.125,1074.6719 798.3594,1074.6719 C796.3125,1074.6719 795.0156,1073.5781 795.0156,1071.875 L795.0156,1070.7813 C795.0156,1069 796.2656,1067.6875 798,1067.6875 C798.5781,1067.6875 799.1875,1067.8438 799.6563,1068.0938 C800.1406,1068.375 800.3125,1068.5938 800.4063,1069 C800.4688,1069.4063 800.5,1069.5313 800.6406,1069.6563 C800.7813,1069.7969 801.0156,1069.9063 801.2344,1069.9063 C801.5,1069.9063 801.7656,1069.7656 801.9375,1069.5469 C802.0469,1069.3906 802.0781,1069.2031 802.0781,1068.7813 L802.0781,1067.3594 C802.0781,1066.9219 802.0625,1066.7969 801.9688,1066.6406 C801.8125,1066.375 801.5313,1066.2344 801.2344,1066.2344 C800.9375,1066.2344 800.7344,1066.3281 800.5156,1066.6406 L800.3438,1066.5625 Z " fill="#000000"/><text fill="#000000" font-family="sans-serif" font-size="14" lengthAdjust="spacing" textLength="80" x="812" y="1075.7373">DockerHub</text><line style="stroke:#000000;stroke-width:1.0;" x1="784" x2="894" y1="1086.8906" y2="1086.8906"/><ellipse cx="794" cy="1100.5391" fill="#84BE84" rx="3" ry="3" style="stroke:#038048;stroke-width:1.0;"/><text fill="#000000" font-family="sans-serif" font-size="14" lengthAdjust="spacing" textLength="62" x="803" y="1103.8857">publish()</text></g><!--class Color--><g id="elem_Color"><rect codeLine="136" fill="#F1F1F1" height="105.1875" id="Color" rx="2.5" ry="2.5" style="stroke:#000000;stroke-width:1.0;" width="178" x="517" y="1030.3906"/><ellipse cx="582.75" cy="1046.3906" fill="#ADD1B2" rx="11" ry="11" style="stroke:#181818;stroke-width:1.0;"/><path d="M585.0938,1042.0625 C584.1563,1041.625 583.5625,1041.4844 582.6875,1041.4844 C580.0625,1041.4844 578.0625,1043.5625 578.0625,1046.2813 L578.0625,1047.4063 C578.0625,1049.9844 580.1719,1051.875 583.0625,1051.875 C584.2813,1051.875 585.4375,1051.5781 586.1875,1051.0313 C586.7656,1050.625 587.0938,1050.1719 587.0938,1049.7813 C587.0938,1049.3281 586.7031,1048.9375 586.2344,1048.9375 C586.0156,1048.9375 585.8125,1049.0156 585.625,1049.2031 C585.1719,1049.6875 585.1719,1049.6875 584.9844,1049.7813 C584.5625,1050.0469 583.875,1050.1719 583.1094,1050.1719 C581.0625,1050.1719 579.7656,1049.0781 579.7656,1047.375 L579.7656,1046.2813 C579.7656,1044.5 581.0156,1043.1875 582.75,1043.1875 C583.3281,1043.1875 583.9375,1043.3438 584.4063,1043.5938 C584.8906,1043.875 585.0625,1044.0938 585.1563,1044.5 C585.2188,1044.9063 585.25,1045.0313 585.3906,1045.1563 C585.5313,1045.2969 585.7656,1045.4063 585.9844,1045.4063 C586.25,1045.4063 586.5156,1045.2656 586.6875,1045.0469 C586.7969,1044.8906 586.8281,1044.7031 586.8281,1044.2813 L586.8281,1042.8594 C586.8281,1042.4219 586.8125,1042.2969 586.7188,1042.1406 C586.5625,1041.875 586.2813,1041.7344 585.9844,1041.7344 C585.6875,1041.7344 585.4844,1041.8281 585.2656,1042.1406 L585.0938,1042.0625 Z " fill="#000000"/><text fill="#000000" font-family="sans-serif" font-size="14" lengthAdjust="spacing" textLength="38" x="603.25" y="1051.2373">Color</text><line style="stroke:#000000;stroke-width:1.0;" x1="518" x2="694" y1="1062.3906" y2="1062.3906"/><ellipse cx="528" cy="1076.0391" fill="#84BE84" rx="3" ry="3" style="stroke:#038048;stroke-width:1.0;"/><text fill="#000000" font-family="sans-serif" font-size="14" lengthAdjust="spacing" text-decoration="underline" textLength="131" x="537" y="1079.3857">red(String): String</text><ellipse cx="528" cy="1092.3359" fill="#84BE84" rx="3" ry="3" style="stroke:#038048;stroke-width:1.0;"/><text fill="#000000" font-family="sans-serif" font-size="14" lengthAdjust="spacing" text-decoration="underline" textLength="152" x="537" y="1095.6826">yellow(String): String</text><ellipse cx="528" cy="1108.6328" fill="#84BE84" rx="3" ry="3" style="stroke:#038048;stroke-width:1.0;"/><text fill="#000000" font-family="sans-serif" font-size="14" lengthAdjust="spacing" text-decoration="underline" textLength="149" x="537" y="1111.9795">green(String): String</text><ellipse cx="528" cy="1124.9297" fill="#84BE84" rx="3" ry="3" style="stroke:#038048;stroke-width:1.0;"/><text fill="#000000" font-family="sans-serif" font-size="14" lengthAdjust="spacing" text-decoration="underline" textLength="140" x="537" y="1128.2764">cyan(String): String</text></g><!--class Log--><g id="elem_Log"><rect codeLine="143" fill="#F1F1F1" height="105.1875" id="Log" rx="2.5" ry="2.5" style="stroke:#000000;stroke-width:1.0;" width="136" x="559" y="839.8906"/><ellipse cx="609.75" cy="855.8906" fill="#ADD1B2" rx="11" ry="11" style="stroke:#181818;stroke-width:1.0;"/><path d="M612.0938,851.5625 C611.1563,851.125 610.5625,850.9844 609.6875,850.9844 C607.0625,850.9844 605.0625,853.0625 605.0625,855.7813 L605.0625,856.9063 C605.0625,859.4844 607.1719,861.375 610.0625,861.375 C611.2813,861.375 612.4375,861.0781 613.1875,860.5313 C613.7656,860.125 614.0938,859.6719 614.0938,859.2813 C614.0938,858.8281 613.7031,858.4375 613.2344,858.4375 C613.0156,858.4375 612.8125,858.5156 612.625,858.7031 C612.1719,859.1875 612.1719,859.1875 611.9844,859.2813 C611.5625,859.5469 610.875,859.6719 610.1094,859.6719 C608.0625,859.6719 606.7656,858.5781 606.7656,856.875 L606.7656,855.7813 C606.7656,854 608.0156,852.6875 609.75,852.6875 C610.3281,852.6875 610.9375,852.8438 611.4063,853.0938 C611.8906,853.375 612.0625,853.5938 612.1563,854 C612.2188,854.4063 612.25,854.5313 612.3906,854.6563 C612.5313,854.7969 612.7656,854.9063 612.9844,854.9063 C613.25,854.9063 613.5156,854.7656 613.6875,854.5469 C613.7969,854.3906 613.8281,854.2031 613.8281,853.7813 L613.8281,852.3594 C613.8281,851.9219 613.8125,851.7969 613.7188,851.6406 C613.5625,851.375 613.2813,851.2344 612.9844,851.2344 C612.6875,851.2344 612.4844,851.3281 612.2656,851.6406 L612.0938,851.5625 Z " fill="#000000"/><text fill="#000000" font-family="sans-serif" font-size="14" lengthAdjust="spacing" textLength="26" x="630.25" y="860.7373">Log</text><line style="stroke:#000000;stroke-width:1.0;" x1="560" x2="694" y1="871.8906" y2="871.8906"/><ellipse cx="570" cy="885.5391" fill="#84BE84" rx="3" ry="3" style="stroke:#038048;stroke-width:1.0;"/><text fill="#000000" font-family="sans-serif" font-size="14" lengthAdjust="spacing" text-decoration="underline" textLength="81" x="579" y="888.8857">var(Object)</text><ellipse cx="570" cy="901.8359" fill="#84BE84" rx="3" ry="3" style="stroke:#038048;stroke-width:1.0;"/><text fill="#000000" font-family="sans-serif" font-size="14" lengthAdjust="spacing" text-decoration="underline" textLength="82" x="579" y="905.1826">info(String)</text><ellipse cx="570" cy="918.1328" fill="#84BE84" rx="3" ry="3" style="stroke:#038048;stroke-width:1.0;"/><text fill="#000000" font-family="sans-serif" font-size="14" lengthAdjust="spacing" text-decoration="underline" textLength="110" x="579" y="921.4795">warning(String)</text><ellipse cx="570" cy="934.4297" fill="#84BE84" rx="3" ry="3" style="stroke:#038048;stroke-width:1.0;"/><text fill="#000000" font-family="sans-serif" font-size="14" lengthAdjust="spacing" text-decoration="underline" textLength="90" x="579" y="937.7764">error(String)</text></g><!--class Email--><g id="elem_Email"><rect codeLine="150" fill="#F1F1F1" height="72.5938" id="Email" rx="2.5" ry="2.5" style="stroke:#000000;stroke-width:1.0;" width="83" x="440.5" y="855.8906"/><ellipse cx="460.9" cy="871.8906" fill="#ADD1B2" rx="11" ry="11" style="stroke:#181818;stroke-width:1.0;"/><path d="M463.2438,867.5625 C462.3063,867.125 461.7125,866.9844 460.8375,866.9844 C458.2125,866.9844 456.2125,869.0625 456.2125,871.7813 L456.2125,872.9063 C456.2125,875.4844 458.3219,877.375 461.2125,877.375 C462.4313,877.375 463.5875,877.0781 464.3375,876.5313 C464.9156,876.125 465.2438,875.6719 465.2438,875.2813 C465.2438,874.8281 464.8531,874.4375 464.3844,874.4375 C464.1656,874.4375 463.9625,874.5156 463.775,874.7031 C463.3219,875.1875 463.3219,875.1875 463.1344,875.2813 C462.7125,875.5469 462.025,875.6719 461.2594,875.6719 C459.2125,875.6719 457.9156,874.5781 457.9156,872.875 L457.9156,871.7813 C457.9156,870 459.1656,868.6875 460.9,868.6875 C461.4781,868.6875 462.0875,868.8438 462.5563,869.0938 C463.0406,869.375 463.2125,869.5938 463.3063,870 C463.3688,870.4063 463.4,870.5313 463.5406,870.6563 C463.6813,870.7969 463.9156,870.9063 464.1344,870.9063 C464.4,870.9063 464.6656,870.7656 464.8375,870.5469 C464.9469,870.3906 464.9781,870.2031 464.9781,869.7813 L464.9781,868.3594 C464.9781,867.9219 464.9625,867.7969 464.8688,867.6406 C464.7125,867.375 464.4313,867.2344 464.1344,867.2344 C463.8375,867.2344 463.6344,867.3281 463.4156,867.6406 L463.2438,867.5625 Z " fill="#000000"/><text fill="#000000" font-family="sans-serif" font-size="14" lengthAdjust="spacing" textLength="39" x="476.1" y="876.7373">Email</text><line style="stroke:#000000;stroke-width:1.0;" x1="441.5" x2="522.5" y1="887.8906" y2="887.8906"/><rect fill="#F24D5C" height="6" style="stroke:#C82930;stroke-width:1.0;" width="6" x="448.5" y="898.5391"/><text fill="#000000" font-family="sans-serif" font-size="14" lengthAdjust="spacing" text-decoration="underline" textLength="57" x="460.5" y="904.8857">create()</text><ellipse cx="451.5" cy="917.8359" fill="#84BE84" rx="3" ry="3" style="stroke:#038048;stroke-width:1.0;"/><text fill="#000000" font-family="sans-serif" font-size="14" lengthAdjust="spacing" text-decoration="underline" textLength="44" x="460.5" y="921.1826">send()</text></g><g id="elem_Choice"><polygon fill="#F1F1F1" points="1348,682.8906,1360,694.8906,1348,706.8906,1336,694.8906,1348,682.8906" style="stroke:#181818;stroke-width:0.5;"/></g><!--entity projectA--><g id="elem_projectA"><rect fill="#F1F1F1" height="131.7813" rx="2.5" ry="2.5" style="stroke:#181818;stroke-width:0.5;" width="226" x="1395" y="417.8906"/><rect fill="#F1F1F1" height="10" style="stroke:#181818;stroke-width:0.5;" width="15" x="1601" y="422.8906"/><rect fill="#F1F1F1" height="2" style="stroke:#181818;stroke-width:0.5;" width="4" x="1599" y="424.8906"/><rect fill="#F1F1F1" height="2" style="stroke:#181818;stroke-width:0.5;" width="4" x="1599" y="428.8906"/><text fill="#000000" font-family="sans-serif" font-size="14" lengthAdjust="spacing" textLength="62" x="1410" y="450.8857">ProjectA</text><text fill="#000000" font-family="sans-serif" font-size="14" lengthAdjust="spacing" textLength="108" x="1432" y="469.1826">properties.yml</text><text fill="#000000" font-family="sans-serif" font-size="14" lengthAdjust="spacing" textLength="115" x="1432" y="485.4795">parameters.yml</text><text fill="#000000" font-family="sans-serif" font-size="14" lengthAdjust="spacing" textLength="147" x="1432" y="501.7764">build.module.groovy</text><text fill="#000000" font-family="sans-serif" font-size="14" lengthAdjust="spacing" textLength="164" x="1432" y="518.0732">publish.module.groovy</text><text fill="#000000" font-family="sans-serif" font-size="14" lengthAdjust="spacing" textLength="15" x="1432" y="534.3701">...</text><rect fill="#F1F1F1" height="2" style="stroke:#000000;stroke-width:0.5;" width="2" x="1425" y="463.3359"/><line style="stroke:#000000;stroke-width:0.5;" x1="1418" x2="1426" y1="464.3359" y2="464.3359"/><line style="stroke:#000000;stroke-width:0.5;" x1="1418" x2="1418" y1="456.1875" y2="464.3359"/><rect fill="#F1F1F1" height="2" style="stroke:#000000;stroke-width:0.5;" width="2" x="1425" y="479.6328"/><line style="stroke:#000000;stroke-width:0.5;" x1="1418" x2="1426" y1="480.6328" y2="480.6328"/><line style="stroke:#000000;stroke-width:0.5;" x1="1418" x2="1418" y1="464.3359" y2="480.6328"/><rect fill="#F1F1F1" height="2" style="stroke:#000000;stroke-width:0.5;" width="2" x="1425" y="495.9297"/><line style="stroke:#000000;stroke-width:0.5;" x1="1418" x2="1426" y1="496.9297" y2="496.9297"/><line style="stroke:#000000;stroke-width:0.5;" x1="1418" x2="1418" y1="480.6328" y2="496.9297"/><rect fill="#F1F1F1" height="2" style="stroke:#000000;stroke-width:0.5;" width="2" x="1425" y="512.2266"/><line style="stroke:#000000;stroke-width:0.5;" x1="1418" x2="1426" y1="513.2266" y2="513.2266"/><line style="stroke:#000000;stroke-width:0.5;" x1="1418" x2="1418" y1="496.9297" y2="513.2266"/><rect fill="#F1F1F1" height="2" style="stroke:#000000;stroke-width:0.5;" width="2" x="1425" y="528.5234"/><line style="stroke:#000000;stroke-width:0.5;" x1="1418" x2="1426" y1="529.5234" y2="529.5234"/><line style="stroke:#000000;stroke-width:0.5;" x1="1418" x2="1418" y1="513.2266" y2="529.5234"/></g><!--entity projectB--><g id="elem_projectB"><rect fill="#F1F1F1" height="131.7813" rx="2.5" ry="2.5" style="stroke:#181818;stroke-width:0.5;" width="226" x="1395" y="628.8906"/><rect fill="#F1F1F1" height="10" style="stroke:#181818;stroke-width:0.5;" width="15" x="1601" y="633.8906"/><rect fill="#F1F1F1" height="2" style="stroke:#181818;stroke-width:0.5;" width="4" x="1599" y="635.8906"/><rect fill="#F1F1F1" height="2" style="stroke:#181818;stroke-width:0.5;" width="4" x="1599" y="639.8906"/><text fill="#000000" font-family="sans-serif" font-size="14" lengthAdjust="spacing" textLength="62" x="1410" y="661.8857">ProjectB</text><text fill="#000000" font-family="sans-serif" font-size="14" lengthAdjust="spacing" textLength="108" x="1432" y="680.1826">properties.yml</text><text fill="#000000" font-family="sans-serif" font-size="14" lengthAdjust="spacing" textLength="115" x="1432" y="696.4795">parameters.yml</text><text fill="#000000" font-family="sans-serif" font-size="14" lengthAdjust="spacing" textLength="147" x="1432" y="712.7764">build.module.groovy</text><text fill="#000000" font-family="sans-serif" font-size="14" lengthAdjust="spacing" textLength="164" x="1432" y="729.0732">publish.module.groovy</text><text fill="#000000" font-family="sans-serif" font-size="14" lengthAdjust="spacing" textLength="15" x="1432" y="745.3701">...</text><rect fill="#F1F1F1" height="2" style="stroke:#000000;stroke-width:0.5;" width="2" x="1425" y="674.3359"/><line style="stroke:#000000;stroke-width:0.5;" x1="1418" x2="1426" y1="675.3359" y2="675.3359"/><line style="stroke:#000000;stroke-width:0.5;" x1="1418" x2="1418" y1="667.1875" y2="675.3359"/><rect fill="#F1F1F1" height="2" style="stroke:#000000;stroke-width:0.5;" width="2" x="1425" y="690.6328"/><line style="stroke:#000000;stroke-width:0.5;" x1="1418" x2="1426" y1="691.6328" y2="691.6328"/><line style="stroke:#000000;stroke-width:0.5;" x1="1418" x2="1418" y1="675.3359" y2="691.6328"/><rect fill="#F1F1F1" height="2" style="stroke:#000000;stroke-width:0.5;" width="2" x="1425" y="706.9297"/><line style="stroke:#000000;stroke-width:0.5;" x1="1418" x2="1426" y1="707.9297" y2="707.9297"/><line style="stroke:#000000;stroke-width:0.5;" x1="1418" x2="1418" y1="691.6328" y2="707.9297"/><rect fill="#F1F1F1" height="2" style="stroke:#000000;stroke-width:0.5;" width="2" x="1425" y="723.2266"/><line style="stroke:#000000;stroke-width:0.5;" x1="1418" x2="1426" y1="724.2266" y2="724.2266"/><line style="stroke:#000000;stroke-width:0.5;" x1="1418" x2="1418" y1="707.9297" y2="724.2266"/><rect fill="#F1F1F1" height="2" style="stroke:#000000;stroke-width:0.5;" width="2" x="1425" y="739.5234"/><line style="stroke:#000000;stroke-width:0.5;" x1="1418" x2="1426" y1="740.5234" y2="740.5234"/><line style="stroke:#000000;stroke-width:0.5;" x1="1418" x2="1418" y1="724.2266" y2="740.5234"/></g><!--entity projectC--><g id="elem_projectC"><rect fill="#F1F1F1" height="131.7813" rx="2.5" ry="2.5" style="stroke:#181818;stroke-width:0.5;" width="226" x="1395" y="826.3906"/><rect fill="#F1F1F1" height="10" style="stroke:#181818;stroke-width:0.5;" width="15" x="1601" y="831.3906"/><rect fill="#F1F1F1" height="2" style="stroke:#181818;stroke-width:0.5;" width="4" x="1599" y="833.3906"/><rect fill="#F1F1F1" height="2" style="stroke:#181818;stroke-width:0.5;" width="4" x="1599" y="837.3906"/><text fill="#000000" font-family="sans-serif" font-size="14" lengthAdjust="spacing" textLength="62" x="1410" y="859.3857">ProjectC</text><text fill="#000000" font-family="sans-serif" font-size="14" lengthAdjust="spacing" textLength="108" x="1432" y="877.6826">properties.yml</text><text fill="#000000" font-family="sans-serif" font-size="14" lengthAdjust="spacing" textLength="115" x="1432" y="893.9795">parameters.yml</text><text fill="#000000" font-family="sans-serif" font-size="14" lengthAdjust="spacing" textLength="147" x="1432" y="910.2764">build.module.groovy</text><text fill="#000000" font-family="sans-serif" font-size="14" lengthAdjust="spacing" textLength="164" x="1432" y="926.5732">publish.module.groovy</text><text fill="#000000" font-family="sans-serif" font-size="14" lengthAdjust="spacing" textLength="15" x="1432" y="942.8701">...</text><rect fill="#F1F1F1" height="2" style="stroke:#000000;stroke-width:0.5;" width="2" x="1425" y="871.8359"/><line style="stroke:#000000;stroke-width:0.5;" x1="1418" x2="1426" y1="872.8359" y2="872.8359"/><line style="stroke:#000000;stroke-width:0.5;" x1="1418" x2="1418" y1="864.6875" y2="872.8359"/><rect fill="#F1F1F1" height="2" style="stroke:#000000;stroke-width:0.5;" width="2" x="1425" y="888.1328"/><line style="stroke:#000000;stroke-width:0.5;" x1="1418" x2="1426" y1="889.1328" y2="889.1328"/><line style="stroke:#000000;stroke-width:0.5;" x1="1418" x2="1418" y1="872.8359" y2="889.1328"/><rect fill="#F1F1F1" height="2" style="stroke:#000000;stroke-width:0.5;" width="2" x="1425" y="904.4297"/><line style="stroke:#000000;stroke-width:0.5;" x1="1418" x2="1426" y1="905.4297" y2="905.4297"/><line style="stroke:#000000;stroke-width:0.5;" x1="1418" x2="1418" y1="889.1328" y2="905.4297"/><rect fill="#F1F1F1" height="2" style="stroke:#000000;stroke-width:0.5;" width="2" x="1425" y="920.7266"/><line style="stroke:#000000;stroke-width:0.5;" x1="1418" x2="1426" y1="921.7266" y2="921.7266"/><line style="stroke:#000000;stroke-width:0.5;" x1="1418" x2="1418" y1="905.4297" y2="921.7266"/><rect fill="#F1F1F1" height="2" style="stroke:#000000;stroke-width:0.5;" width="2" x="1425" y="937.0234"/><line style="stroke:#000000;stroke-width:0.5;" x1="1418" x2="1426" y1="938.0234" y2="938.0234"/><line style="stroke:#000000;stroke-width:0.5;" x1="1418" x2="1418" y1="921.7266" y2="938.0234"/></g><!--entity pipelineA--><g id="elem_pipelineA"><rect fill="#F1F1F1" height="46.2969" rx="2.5" ry="2.5" style="stroke:#181818;stroke-width:0.5;" width="210" x="1094" y="460.8906"/><rect fill="#F1F1F1" height="10" style="stroke:#181818;stroke-width:0.5;" width="15" x="1284" y="465.8906"/><rect fill="#F1F1F1" height="2" style="stroke:#181818;stroke-width:0.5;" width="4" x="1282" y="467.8906"/><rect fill="#F1F1F1" height="2" style="stroke:#181818;stroke-width:0.5;" width="4" x="1282" y="471.8906"/><text fill="#000000" font-family="sans-serif" font-size="14" lengthAdjust="spacing" textLength="170" x="1109" y="493.8857">sample.pipeline.groovy</text></g><!--entity pipelineB--><g id="elem_pipelineB"><rect fill="#F1F1F1" height="46.2969" rx="2.5" ry="2.5" style="stroke:#181818;stroke-width:0.5;" width="193" x="1102.5" y="671.8906"/><rect fill="#F1F1F1" height="10" style="stroke:#181818;stroke-width:0.5;" width="15" x="1275.5" y="676.8906"/><rect fill="#F1F1F1" height="2" style="stroke:#181818;stroke-width:0.5;" width="4" x="1273.5" y="678.8906"/><rect fill="#F1F1F1" height="2" style="stroke:#181818;stroke-width:0.5;" width="4" x="1273.5" y="682.8906"/><text fill="#000000" font-family="sans-serif" font-size="14" lengthAdjust="spacing" textLength="153" x="1117.5" y="704.8857">build.pipeline.groovy</text></g><!--entity pipelineC--><g id="elem_pipelineC"><rect fill="#F1F1F1" height="46.2969" rx="2.5" ry="2.5" style="stroke:#181818;stroke-width:0.5;" width="207" x="1095.5" y="869.3906"/><rect fill="#F1F1F1" height="10" style="stroke:#181818;stroke-width:0.5;" width="15" x="1282.5" y="874.3906"/><rect fill="#F1F1F1" height="2" style="stroke:#181818;stroke-width:0.5;" width="4" x="1280.5" y="876.3906"/><rect fill="#F1F1F1" height="2" style="stroke:#181818;stroke-width:0.5;" width="4" x="1280.5" y="880.3906"/><text fill="#000000" font-family="sans-serif" font-size="14" lengthAdjust="spacing" textLength="167" x="1110.5" y="902.3857">deploy.pipeline.groovy</text></g><!--entity JobA--><g id="elem_JobA"><rect fill="#F1F1F1" height="46.2969" rx="2.5" ry="2.5" style="stroke:#181818;stroke-width:0.5;" width="73" x="1070.5" y="223.8906"/><rect fill="#F1F1F1" height="10" style="stroke:#181818;stroke-width:0.5;" width="15" x="1123.5" y="228.8906"/><rect fill="#F1F1F1" height="2" style="stroke:#181818;stroke-width:0.5;" width="4" x="1121.5" y="230.8906"/><rect fill="#F1F1F1" height="2" style="stroke:#181818;stroke-width:0.5;" width="4" x="1121.5" y="234.8906"/><text fill="#000000" font-family="sans-serif" font-size="14" lengthAdjust="spacing" textLength="33" x="1085.5" y="256.8857">JobA</text></g><!--entity JobB--><g id="elem_JobB"><rect fill="#F1F1F1" height="46.2969" rx="2.5" ry="2.5" style="stroke:#181818;stroke-width:0.5;" width="73" x="1178.5" y="223.8906"/><rect fill="#F1F1F1" height="10" style="stroke:#181818;stroke-width:0.5;" width="15" x="1231.5" y="228.8906"/><rect fill="#F1F1F1" height="2" style="stroke:#181818;stroke-width:0.5;" width="4" x="1229.5" y="230.8906"/><rect fill="#F1F1F1" height="2" style="stroke:#181818;stroke-width:0.5;" width="4" x="1229.5" y="234.8906"/><text fill="#000000" font-family="sans-serif" font-size="14" lengthAdjust="spacing" textLength="33" x="1193.5" y="256.8857">JobB</text></g><!--entity JobC--><g id="elem_JobC"><rect fill="#F1F1F1" height="46.2969" rx="2.5" ry="2.5" style="stroke:#181818;stroke-width:0.5;" width="73" x="1286.5" y="223.8906"/><rect fill="#F1F1F1" height="10" style="stroke:#181818;stroke-width:0.5;" width="15" x="1339.5" y="228.8906"/><rect fill="#F1F1F1" height="2" style="stroke:#181818;stroke-width:0.5;" width="4" x="1337.5" y="230.8906"/><rect fill="#F1F1F1" height="2" style="stroke:#181818;stroke-width:0.5;" width="4" x="1337.5" y="234.8906"/><text fill="#000000" font-family="sans-serif" font-size="14" lengthAdjust="spacing" textLength="33" x="1301.5" y="256.8857">JobC</text></g><!--link Task to Pipeline--><g id="link_Task_Pipeline"><path codeLine="94" d="M311,299.4626 C311,328.5106 311,365.5076 311,398.6556 " fill="none" id="Task-Pipeline" style="stroke:#000000;stroke-width:1.5;"/></g><!--link Type to Pipeline--><g id="link_Type_Pipeline"><path codeLine="95" d="M188.957,291.6376 C199.81,304.2716 211.249,318.3206 221,331.8906 C236.048,352.8326 250.968,376.4016 264.204,398.5816 " fill="none" id="Type-Pipeline" style="stroke:#000000;stroke-width:1.5;"/></g><!--link Status to Stage--><g id="link_Status_Stage"><path codeLine="96" d="M504.802,316.1776 C519.472,348.7016 536.912,387.3656 551.302,419.2676 " fill="none" id="Status-Stage" style="stroke:#000000;stroke-width:1.5;"/></g><!--link Status to Job--><!--reverse link Module to Checkout--><g id="link_Module_Checkout"><path codeLine="119" d="M234,977.4046 C234,991.1346 234,1005.1586 234,1018.2916 " fill="none" id="Module-backto-Checkout" style="stroke:#000000;stroke-width:1.5;"/><polygon fill="none" points="227,976.9456,234,956.9456,241,976.9456,227,976.9456" style="stroke:#000000;stroke-width:1.5;"/></g><!--link Jenkins to DockerHub--><!--link Log to Color--><g id="link_Log_Color"><path codeLine="155" d="M621.262,944.8986 C618.311,971.3876 614.723,1003.5906 611.768,1030.1176 " fill="none" id="Log-Color" style="stroke:#000000;stroke-width:1.5;"/></g><!--link projectA to projectB--><!--link projectB to projectC--><!--link pipelineA to pipelineB--><!--link pipelineB to pipelineC--><!--reverse link pipelineA to Choice--><g id="link_pipelineA_Choice"><path codeLine="208" d="M1225.18,511.1386 C1251.61,538.6836 1292.38,584.1256 1320,628.8906 C1331.74,647.9226 1340.94,672.7466 1345.28,685.5076 " fill="none" id="pipelineA-backto-Choice" style="stroke:#000000;stroke-width:1.5;stroke-dasharray:7.0,7.0;"/><polygon fill="#000000" points="1221.39,507.2066,1224.7578,516.4618,1224.8607,510.8058,1230.5166,510.9087,1221.39,507.2066" style="stroke:#000000;stroke-width:1.5;"/></g><!--reverse link pipelineB to Choice--><g id="link_pipelineB_Choice"><path codeLine="209" d="M1300.63,694.8906 C1312.33,694.8906 1324.03,694.8906 1335.72,694.8906 " fill="none" id="pipelineB-backto-Choice" style="stroke:#000000;stroke-width:1.5;stroke-dasharray:7.0,7.0;"/><polygon fill="#000000" points="1295.62,694.8906,1304.62,698.8906,1300.62,694.8906,1304.62,690.8906,1295.62,694.8906" style="stroke:#000000;stroke-width:1.5;"/></g><!--link Choice to pipelineC--><g id="link_Choice_pipelineC"><path codeLine="210" d="M1345.39,704.3466 C1341.21,717.2036 1332.2,742.1506 1320,760.8906 C1293.81,801.1146 1254.84,840.5796 1228.25,865.3926 " fill="none" id="Choice-to-pipelineC" style="stroke:#000000;stroke-width:1.5;stroke-dasharray:7.0,7.0;"/><polygon fill="#000000" points="1224.42,868.9456,1233.7388,865.758,1228.0859,865.5455,1228.2985,859.8926,1224.42,868.9456" style="stroke:#000000;stroke-width:1.5;"/></g><!--reverse link projectA to Choice--><g id="link_projectA_Choice"><path codeLine="212" d="M1438.83,554.0096 C1418.12,576.7436 1396.33,602.8826 1379,628.8906 C1366.38,647.8266 1356.04,672.6906 1351.11,685.4836 " fill="none" id="projectA-backto-Choice" style="stroke:#000000;stroke-width:1.5;stroke-dasharray:7.0,7.0;"/><polygon fill="#000000" points="1442.41,550.0986,1433.3807,554.032,1439.0322,553.7851,1439.2791,559.4366,1442.41,550.0986" style="stroke:#000000;stroke-width:1.5;"/></g><!--link Choice to projectB--><g id="link_Choice_projectB"><path codeLine="213" d="M1360.19,694.8906 C1370.02,694.8906 1379.85,694.8906 1389.69,694.8906 " fill="none" id="Choice-to-projectB" style="stroke:#000000;stroke-width:1.5;stroke-dasharray:7.0,7.0;"/><polygon fill="#000000" points="1394.83,694.8906,1385.83,690.8906,1389.83,694.8906,1385.83,698.8906,1394.83,694.8906" style="stroke:#000000;stroke-width:1.5;"/></g><!--link Choice to projectC--><g id="link_Choice_projectC"><path codeLine="214" d="M1350.99,704.3766 C1355.77,717.2726 1365.92,742.2706 1379,760.8906 C1394.11,782.3976 1412.87,803.5956 1431.37,822.4506 " fill="none" id="Choice-to-projectC" style="stroke:#000000;stroke-width:1.5;stroke-dasharray:7.0,7.0;"/><polygon fill="#000000" points="1435.07,826.1896,1431.5902,816.976,1431.556,822.6327,1425.8992,822.5984,1435.07,826.1896" style="stroke:#000000;stroke-width:1.5;"/></g><!--link JobA to JobB--><!--link JobB to JobC--><!--link JobA to pipelineA--><g id="link_JobA_pipelineA"><path codeLine="225" d="M1115.66,269.9986 C1132.57,313.2136 1169.98,408.7546 1188.37,455.7326 " fill="none" id="JobA-to-pipelineA" style="stroke:#000000;stroke-width:1.5;stroke-dasharray:7.0,7.0;"/><polygon fill="#000000" points="1190.3,460.6696,1190.7445,450.8308,1188.4776,456.0136,1183.2948,453.7467,1190.3,460.6696" style="stroke:#000000;stroke-width:1.5;"/></g><!--link JobB to pipelineA--><g id="link_JobB_pipelineA"><path codeLine="226" d="M1213.49,269.9986 C1210.56,313.1256 1204.07,408.3686 1200.87,455.4466 " fill="none" id="JobB-to-pipelineA" style="stroke:#000000;stroke-width:1.5;stroke-dasharray:7.0,7.0;"/><polygon fill="#000000" points="1200.51,460.6696,1205.1131,451.9626,1200.8502,455.6812,1197.1316,451.4183,1200.51,460.6696" style="stroke:#000000;stroke-width:1.5;"/></g><!--link JobC to pipelineA--><g id="link_JobC_pipelineA"><path codeLine="227" d="M1311.33,269.9986 C1288.49,313.3006 1237.91,409.1416 1213.18,456.0176 " fill="none" id="JobC-to-pipelineA" style="stroke:#000000;stroke-width:1.5;stroke-dasharray:7.0,7.0;"/><polygon fill="#000000" points="1210.72,460.6696,1218.4551,454.5731,1213.0514,456.2465,1211.3781,450.8428,1210.72,460.6696" style="stroke:#000000;stroke-width:1.5;"/></g><!--link Pipeline to Context--><g id="link_Pipeline_Context"><path codeLine="230" d="M397.104,557.3726 C421.843,575.8846 449.575,594.5756 477,608.8906 C529.959,636.5336 593.706,657.7336 644.339,672.0476 " fill="none" id="Pipeline-to-Context" style="stroke:#000000;stroke-width:1.5;"/><polygon fill="none" points="646.323,665.3336,663.753,677.3836,642.613,678.8336,646.323,665.3336" style="stroke:#000000;stroke-width:1.5;"/></g><!--link Job to Context--><g id="link_Job_Context"><path codeLine="231" d="M680.424,320.1416 C681.344,324.1046 682.21,328.0396 683,331.8906 C705.885,443.4926 721.266,576.6386 728.41,646.1966 " fill="none" id="Job-to-Context" style="stroke:#000000;stroke-width:1.5;"/><polygon fill="none" points="735.409,645.8386,730.439,666.4376,721.479,647.2356,735.409,645.8386" style="stroke:#000000;stroke-width:1.5;"/></g><!--link Config to Context--><g id="link_Config_Context"><path codeLine="232" d="M843.288,324.0536 C815.619,416.8386 769.744,570.6756 746.865,647.3966 " fill="none" id="Config-to-Context" style="stroke:#000000;stroke-width:1.5;"/><polygon fill="none" points="753.479,649.7106,741.056,666.8766,740.063,645.7096,753.479,649.7106" style="stroke:#000000;stroke-width:1.5;"/></g><!--link Stage to Context--><g id="link_Stage_Context"><path codeLine="233" d="M625.228,548.4926 C639.173,567.9436 654.638,589.3556 669,608.8906 C679.078,622.5996 690.19,637.4466 700.286,650.8396 " fill="none" id="Stage-to-Context" style="stroke:#000000;stroke-width:1.5;"/><polygon fill="none" points="705.898,646.6546,712.377,666.8296,694.731,655.0986,705.898,646.6546" style="stroke:#000000;stroke-width:1.5;"/></g><!--reverse link Context to Module--><g id="link_Context_Module"><path codeLine="235" d="M643.517,703.5406 C571.906,712.2856 470.359,730.6916 389,768.8906 C357.332,783.7596 326.292,806.2266 300.408,827.8766 " fill="none" id="Context-backto-Module" style="stroke:#000000;stroke-width:1.5;"/><polygon fill="none" points="643.134,696.5386,663.8,701.2226,644.724,710.4476,643.134,696.5386" style="stroke:#000000;stroke-width:1.5;"/></g><!--reverse link Context to Log--><g id="link_Context_Log"><path codeLine="236" d="M708.553,740.9796 C692.546,770.5016 671.586,809.1576 654.924,839.8896 " fill="none" id="Context-backto-Log" style="stroke:#000000;stroke-width:1.5;"/><polygon fill="none" points="702.575,737.3196,718.261,723.0736,714.882,743.9926,702.575,737.3196" style="stroke:#000000;stroke-width:1.5;"/></g><!--reverse link Context to Email--><g id="link_Context_Email"><path codeLine="237" d="M644.367,714.3756 C608.884,725.3856 569.705,742.5406 541,768.8906 C515.611,792.1966 499.991,828.7626 491.255,855.8846 " fill="none" id="Context-backto-Email" style="stroke:#000000;stroke-width:1.5;"/><polygon fill="none" points="642.455,707.6426,663.609,708.8726,646.305,721.1026,642.455,707.6426" style="stroke:#000000;stroke-width:1.5;"/></g><!--reverse link Context to Jenkins--><g id="link_Context_Jenkins"><path codeLine="238" d="M762.205,740.1476 C768.004,749.5026 773.878,759.4146 779,768.8906 C794.4,797.3826 809.528,830.9006 820.17,855.6666 " fill="none" id="Context-backto-Jenkins" style="stroke:#000000;stroke-width:1.5;"/><polygon fill="none" points="756.191,743.7356,751.363,723.1036,768.004,736.2206,756.191,743.7356" style="stroke:#000000;stroke-width:1.5;"/></g><!--reverse link Context to DockerHub--><g id="link_Context_DockerHub"><path codeLine="239" d="M728.499,743.3376 C724.537,806.5456 724.613,920.3876 765,1006.3906 C773.738,1024.9976 788.994,1041.7746 803.393,1054.7616 " fill="none" id="Context-backto-DockerHub" style="stroke:#000000;stroke-width:1.5;"/><polygon fill="none" points="721.531,742.6406,730.009,723.2206,735.492,743.6886,721.531,742.6406" style="stroke:#000000;stroke-width:1.5;"/></g><!--link pipelineA to Context--><g id="link_pipelineA_Context"><path codeLine="241" d="M1174.78,507.0406 C1143.5,534.5606 1086.36,581.2546 1030,608.8906 C958.103,644.1436 869.047,667.1886 807.302,680.2736 " fill="none" id="pipelineA-to-Context" style="stroke:#000000;stroke-width:1.5;stroke-dasharray:7.0,7.0;"/><polygon fill="#000000" points="802.161,681.3536,811.7914,683.4166,807.0541,680.325,810.1456,675.5877,802.161,681.3536" style="stroke:#000000;stroke-width:1.5;"/></g><!--reverse link Context to pipelineB--><g id="link_Context_pipelineB"><path codeLine="242" d="M807.444,694.8906 C905.669,694.8906 1003.89,694.8906 1102.12,694.8906 " fill="none" id="Context-backto-pipelineB" style="stroke:#000000;stroke-width:1.5;stroke-dasharray:7.0,7.0;"/><polygon fill="#000000" points="802.172,694.8906,811.172,698.8906,807.172,694.8906,811.172,690.8906,802.172,694.8906" style="stroke:#000000;stroke-width:1.5;"/></g><!--reverse link Context to pipelineC--><g id="link_Context_pipelineC"><path codeLine="243" d="M807.169,720.3646 C846.409,733.7976 895.197,751.2726 938,768.8906 C1015.76,800.8976 1103.87,843.6516 1155.25,869.2636 " fill="none" id="Context-backto-pipelineC" style="stroke:#000000;stroke-width:1.5;stroke-dasharray:7.0,7.0;"/><polygon fill="#000000" points="802.432,718.7466,809.6564,725.4405,807.1637,720.3624,812.2417,717.8697,802.432,718.7466" style="stroke:#000000;stroke-width:1.5;"/></g><!--link core to module--><!--link core to util--><!--link core to service--><!--link module to util--><!--SRC=[rLTDRziu4BthLn3DeHzPARi5zc841cp5QRphE4Rb71PjKT3InEPQ8WMIIcgq-Uyx-YGbCqcnj_gGsEyD7sU6e-7eDTbfdQlHsLcUKgwBB0rYaPt9uYnEgL9-mkXMqippDDCfaC_y0kvlSaKk4OG78VUVUJHPHPEbvwazupb5d7pt27usDDvlfIXuGXvsJ4C5KYd5GoXI8SacHGC3hdSitdDGYlmH_EbLUEN2LCW4v729HLaBFUzrIPQxvdE-0yaqvJ6GzpMUCWxwa0F9HNeeVmnW8VLEr5XOwby1HVrf5qVjn0dyVeSVxn531aqu9aBbD8O8okWrMen67arJyP2nRunllHrBW42MwmF907T8b0tTCKWHyJeTecJSf91kb9OqrdMu91HSmpVTaENdkz9Ki_YHdEGiXpAG4ObYoN9TcJoMJgBcdcuhsT4e5XB8oKNrGHsJIx9g1CZvEQbLoNXiRUMNAHgHDVwrCAhsYE5VW-7YBQWHMJ2bpwFonzYGljzzFvK5VnDfYIdw3VCjL27XhM4hcJSsiBD- -R7WTsoBInhmqOxbBx5vAepJCi-Of6fVWsuAbYRB8jk0V8fqhaCdZy52fWuHgk1sGFIS3gk8dlGxbo87gLcPsckQMqJvp846EI1wkTw2_f2A3KqlMThBAX8hAVw5M0yO7tLL3oZoX6fOTTkvCb-Tjwj0JxVLziZhGfL9AFyRRUUfO2a1zgQsE7ebvbIn8uPl41TwK1x0YwmgOJkpovlrrulPvNmvkp1Wk9X4qJmqmFNjOZsVVfmimwjZHNm0NbIStiuNri_rB5hFbnyCS35RBMx-kPujrqVwTPp37QBrvEFQtY7wUxvQzO0ZYzimd4MH0MwNQ3DTp0noEPalcYMFJJ_jMiCxlpdW4JRfu9tN8x4-VDCA1d3RDUhb5MOTNlcy-f-mAIR0lnHvImsRLoQI8hNRbwD7NjSshWgibxUTgJOqhUbxA_JuH8-mgyk8jcLM6xyTDGwuP4yOPzfwe6pAMQrDNzX1l1U5Vhc9kVkEn2jmzsmq_i0nt-bDazdp7xxV-NHqH0haFOk7PzHqPU0u8lJAE2ysAUirzjD4FF1KqCILYWiHxq5U5PkdDHhxTg-kgdop-CZfGhFKwN5zuRjgIK9YZdoGMcDrW78C-0d3hGJWFs4N7wZRh9UcXTWwdRwdyitDfkprRnqiutUYrNRG3rHof9wn01pZP8_lUJNBAARPuPSVIw3QlcgCfW8-g8GokB82owEnJrA24eMCGRLZJKkqam8g2go8_ZbNxeai5nou9dbz4qx8fuwiUba3zy0VNucvaeD3bXwntKNfOgkP8gXRKe3ZfRW_70dKXVsyKH047VJ5UpgcgJkcwQySK-YEAVo5OkegpcfK-V1ekYCyDWhjHwEj-FPTu8LYRwo6rKuKpNACe-M70NrvHcjOPKtw_e_Ky7190dag3Z-XPGApyzLwU6GsTPdryeelmPd0rzXm9_1kQtBTRN8UT4nVzZoGBY94ekXfrTz9K8oxUkZXSjolYHPFngOCqDKu5KL2NhLNtvLG-bLxdNNfnL5hSWnDZw7GQqUp2GdQ1Cd0M9TVXanlKJ0sMR9MkE1m06CqPe3qVupRLr-lcXHje7bhwc7Da6b3NllkN8qlpOpMm_1UwGFLVML3xL3HmynKOU00HrWJYu6bLOK6JQoYywhtSrEFw4RTLHn4ERKuu6O2ywgXfcDIkDEjrdy0]--></g></svg>