<?xml version="1.0" encoding="us-ascii" standalone="no"?><svg xmlns="http://www.w3.org/2000/svg" xmlns:xlink="http://www.w3.org/1999/xlink" contentStyleType="text/css" height="1654px" preserveAspectRatio="none" style="width:1394px;height:1654px;background:#FFFFFF;" version="1.1" viewBox="0 0 1394 1654" width="1394px" zoomAndPan="magnify"><defs/><g><text fill="#000000" font-family="sans-serif" font-size="14" font-weight="bold" lengthAdjust="spacing" textLength="154" x="616.25" y="27.9951">DevOps Framework</text><text fill="#000000" font-family="sans-serif" font-size="14" font-weight="bold" lengthAdjust="spacing" textLength="63" x="661.75" y="44.292">SAPSAN</text><rect fill="#F9F9F9" height="1584.6641" style="stroke:#181818;stroke-width:0.5;" width="639.5" x="319.5" y="59.5938"/><text fill="#000000" font-family="sans-serif" font-size="13" font-weight="bold" lengthAdjust="spacing" textLength="5" x="580.75" y="71.6606">&#160;</text><text fill="#000000" font-family="sans-serif" font-size="13" font-weight="bold" lengthAdjust="spacing" textLength="112" x="580.75" y="86.7935">&#1054;&#1073;&#1097;&#1080;&#1077; &#1082;&#1083;&#1072;&#1089;&#1089;&#1099;</text><rect fill="#F9F9F9" height="1584.6641" style="stroke:#181818;stroke-width:0.5;" width="399.5" x="987" y="59.5938"/><text fill="#000000" font-family="sans-serif" font-size="13" font-weight="bold" lengthAdjust="spacing" textLength="5" x="1069.75" y="71.6606">&#160;</text><text fill="#000000" font-family="sans-serif" font-size="13" font-weight="bold" lengthAdjust="spacing" textLength="229" x="1069.75" y="86.7935">&#1050;&#1086;&#1085;&#1092;&#1080;&#1075;&#1080; &#1087;&#1086;&#1076; &#1082;&#1072;&#1078;&#1076;&#1099;&#1081; &#1087;&#1088;&#1086;&#1077;&#1082;&#1090;</text><rect fill="#FFFFFF" height="218.0625" style="stroke:#181818;stroke-width:1.0;" width="10" x="202.5" y="275.8203"/><rect fill="#FFFFFF" height="383.8594" style="stroke:#181818;stroke-width:1.0;" width="10" x="202.5" y="799.2109"/><rect fill="#FFFFFF" height="875.9844" style="stroke:#181818;stroke-width:1.0;" width="10" x="354.5" y="610.4141"/><rect fill="#FFFFFF" height="144.5313" style="stroke:#181818;stroke-width:1.0;" width="10" x="579.5" y="654.6797"/><rect fill="#FFFFFF" height="77.2656" style="stroke:#181818;stroke-width:1.0;" width="10" x="579.5" y="1212.2031"/><rect fill="#FFFFFF" height="116.5313" style="stroke:#181818;stroke-width:1.0;" width="10" x="579.5" y="1325.6016"/><rect fill="#FFFFFF" height="72.2656" style="stroke:#181818;stroke-width:1.0;" width="10" x="579.5" y="1486.3984"/><rect fill="#FFFFFF" height="72.2656" style="stroke:#181818;stroke-width:1.0;" width="10" x="702.5" y="668.6797"/><rect fill="#FFFFFF" height="29.1328" style="stroke:#181818;stroke-width:1.0;" width="10" x="702.5" y="1030.4063"/><rect fill="#FFFFFF" height="29.1328" style="stroke:#181818;stroke-width:1.0;" width="10" x="702.5" y="1399"/><rect fill="#FFFFFF" height="43.1328" style="stroke:#181818;stroke-width:1.0;" width="10" x="769.5" y="1515.5313"/><rect fill="#FFFFFF" height="218.0625" style="stroke:#181818;stroke-width:1.0;" width="10" x="917.5" y="275.8203"/><rect fill="#FFFFFF" height="130.5313" style="stroke:#181818;stroke-width:1.0;" width="10" x="917.5" y="972.1406"/><rect fill="#FFFFFF" height="72.2656" style="stroke:#181818;stroke-width:1.0;" width="10" x="1042.5" y="320.0859"/><rect fill="#FFFFFF" height="72.2656" style="stroke:#181818;stroke-width:1.0;" width="10" x="1042.5" y="1001.2734"/><rect fill="#FFFFFF" height="72.2656" style="stroke:#181818;stroke-width:1.0;" width="10" x="1042.5" y="1369.8672"/><rect fill="none" height="90.5313" style="stroke:#000000;stroke-width:1.5;" width="484.5" x="138" y="814.2109"/><rect fill="none" height="221.0625" style="stroke:#000000;stroke-width:1.5;" width="976" x="138" y="918.7422"/><line style="stroke:#181818;stroke-width:0.5;stroke-dasharray:5.0,5.0;" x1="33" x2="33" y1="142.1563" y2="1576.6641"/><line style="stroke:#181818;stroke-width:0.5;stroke-dasharray:5.0,5.0;" x1="207" x2="207" y1="142.1563" y2="1576.6641"/><line style="stroke:#181818;stroke-width:0.5;stroke-dasharray:5.0,5.0;" x1="359.5" x2="359.5" y1="142.1563" y2="1576.6641"/><line style="stroke:#181818;stroke-width:0.5;stroke-dasharray:5.0,5.0;" x1="584.5" x2="584.5" y1="142.1563" y2="1576.6641"/><line style="stroke:#181818;stroke-width:0.5;stroke-dasharray:5.0,5.0;" x1="707" x2="707" y1="142.1563" y2="1576.6641"/><line style="stroke:#181818;stroke-width:0.5;stroke-dasharray:5.0,5.0;" x1="774" x2="774" y1="142.1563" y2="1576.6641"/><line style="stroke:#181818;stroke-width:0.5;stroke-dasharray:5.0,5.0;" x1="861" x2="861" y1="142.1563" y2="1576.6641"/><line style="stroke:#181818;stroke-width:0.5;stroke-dasharray:5.0,5.0;" x1="922" x2="922" y1="142.1563" y2="1576.6641"/><line style="stroke:#181818;stroke-width:0.5;stroke-dasharray:5.0,5.0;" x1="1047" x2="1047" y1="142.1563" y2="1576.6641"/><line style="stroke:#181818;stroke-width:0.5;stroke-dasharray:5.0,5.0;" x1="1194.5" x2="1194.5" y1="142.1563" y2="1576.6641"/><line style="stroke:#181818;stroke-width:0.5;stroke-dasharray:5.0,5.0;" x1="1321.5" x2="1321.5" y1="142.1563" y2="1576.6641"/><text fill="#000000" font-family="sans-serif" font-size="14" lengthAdjust="spacing" textLength="51" x="5" y="138.8545">Jenkins</text><path d="M15.5,89.8594 C15.5,79.8594 33.5,79.8594 33.5,79.8594 C33.5,79.8594 51.5,79.8594 51.5,89.8594 L51.5,115.8594 C51.5,125.8594 33.5,125.8594 33.5,125.8594 C33.5,125.8594 15.5,125.8594 15.5,115.8594 L15.5,89.8594 " fill="#FF4433" style="stroke:#181818;stroke-width:1.5;"/><path d="M15.5,89.8594 C15.5,99.8594 33.5,99.8594 33.5,99.8594 C33.5,99.8594 51.5,99.8594 51.5,89.8594 " fill="none" style="stroke:#181818;stroke-width:1.5;"/><text fill="#000000" font-family="sans-serif" font-size="14" lengthAdjust="spacing" textLength="51" x="5" y="1588.6592">Jenkins</text><path d="M15.5,1601.9609 C15.5,1591.9609 33.5,1591.9609 33.5,1591.9609 C33.5,1591.9609 51.5,1591.9609 51.5,1601.9609 L51.5,1627.9609 C51.5,1637.9609 33.5,1637.9609 33.5,1637.9609 C33.5,1637.9609 15.5,1637.9609 15.5,1627.9609 L15.5,1601.9609 " fill="#FF4433" style="stroke:#181818;stroke-width:1.5;"/><path d="M15.5,1601.9609 C15.5,1611.9609 33.5,1611.9609 33.5,1611.9609 C33.5,1611.9609 51.5,1611.9609 51.5,1601.9609 " fill="none" style="stroke:#181818;stroke-width:1.5;"/><text fill="#000000" font-family="sans-serif" font-size="14" lengthAdjust="spacing" textLength="113" x="148" y="122.5576">pipeline.groovy</text><text fill="#000000" font-family="sans-serif" font-size="14" lengthAdjust="spacing" textLength="84" x="162.5" y="138.8545">(Jenkinsfile)</text><ellipse cx="207.5" cy="93.5625" fill="#E2E2F0" rx="12" ry="12" style="stroke:#181818;stroke-width:0.5;"/><line style="stroke:#181818;stroke-width:0.5;" x1="195.5" x2="219.5" y1="107.5625" y2="107.5625"/><text fill="#000000" font-family="sans-serif" font-size="14" lengthAdjust="spacing" textLength="113" x="148" y="1588.6592">pipeline.groovy</text><text fill="#000000" font-family="sans-serif" font-size="14" lengthAdjust="spacing" textLength="84" x="162.5" y="1604.9561">(Jenkinsfile)</text><ellipse cx="207.5" cy="1624.2578" fill="#E2E2F0" rx="12" ry="12" style="stroke:#181818;stroke-width:0.5;"/><line style="stroke:#181818;stroke-width:0.5;" x1="195.5" x2="219.5" y1="1638.2578" y2="1638.2578"/><rect fill="#99FFFF" height="30.2969" rx="2.5" ry="2.5" style="stroke:#181818;stroke-width:0.5;" width="72" x="323.5" y="110.8594"/><text fill="#000000" font-family="sans-serif" font-size="14" lengthAdjust="spacing" textLength="58" x="330.5" y="130.8545">Pipeline</text><rect fill="#99FFFF" height="30.2969" rx="2.5" ry="2.5" style="stroke:#181818;stroke-width:0.5;" width="72" x="323.5" y="1575.6641"/><text fill="#000000" font-family="sans-serif" font-size="14" lengthAdjust="spacing" textLength="58" x="330.5" y="1595.6592">Pipeline</text><rect fill="#99FFFF" height="30.2969" rx="2.5" ry="2.5" style="stroke:#181818;stroke-width:0.5;" width="56" x="556.5" y="110.8594"/><text fill="#000000" font-family="sans-serif" font-size="14" lengthAdjust="spacing" textLength="42" x="563.5" y="130.8545">Stage</text><rect fill="#99FFFF" height="30.2969" rx="2.5" ry="2.5" style="stroke:#181818;stroke-width:0.5;" width="56" x="556.5" y="1575.6641"/><text fill="#000000" font-family="sans-serif" font-size="14" lengthAdjust="spacing" textLength="42" x="563.5" y="1595.6592">Stage</text><rect fill="#99FFFF" height="30.2969" rx="2.5" ry="2.5" style="stroke:#181818;stroke-width:0.5;" width="61" x="677" y="110.8594"/><text fill="#000000" font-family="sans-serif" font-size="14" lengthAdjust="spacing" textLength="47" x="684" y="130.8545">Config</text><rect fill="#99FFFF" height="30.2969" rx="2.5" ry="2.5" style="stroke:#181818;stroke-width:0.5;" width="61" x="677" y="1575.6641"/><text fill="#000000" font-family="sans-serif" font-size="14" lengthAdjust="spacing" textLength="47" x="684" y="1595.6592">Config</text><rect fill="#99FFFF" height="30.2969" rx="2.5" ry="2.5" style="stroke:#181818;stroke-width:0.5;" width="53" x="748" y="110.8594"/><text fill="#000000" font-family="sans-serif" font-size="14" lengthAdjust="spacing" textLength="39" x="755" y="130.8545">Email</text><rect fill="#99FFFF" height="30.2969" rx="2.5" ry="2.5" style="stroke:#181818;stroke-width:0.5;" width="53" x="748" y="1575.6641"/><text fill="#000000" font-family="sans-serif" font-size="14" lengthAdjust="spacing" textLength="39" x="755" y="1595.6592">Email</text><rect fill="#99FFFF" height="30.2969" rx="2.5" ry="2.5" style="stroke:#181818;stroke-width:0.5;" width="37" x="843" y="110.8594"/><text fill="#000000" font-family="sans-serif" font-size="14" lengthAdjust="spacing" textLength="23" x="850" y="130.8545">Job</text><rect fill="#99FFFF" height="30.2969" rx="2.5" ry="2.5" style="stroke:#181818;stroke-width:0.5;" width="37" x="843" y="1575.6641"/><text fill="#000000" font-family="sans-serif" font-size="14" lengthAdjust="spacing" textLength="23" x="850" y="1595.6592">Job</text><rect fill="#99FFFF" height="30.2969" rx="2.5" ry="2.5" style="stroke:#181818;stroke-width:0.5;" width="65" x="890" y="110.8594"/><text fill="#000000" font-family="sans-serif" font-size="14" lengthAdjust="spacing" textLength="51" x="897" y="130.8545">Module</text><rect fill="#99FFFF" height="30.2969" rx="2.5" ry="2.5" style="stroke:#181818;stroke-width:0.5;" width="65" x="890" y="1575.6641"/><text fill="#000000" font-family="sans-serif" font-size="14" lengthAdjust="spacing" textLength="51" x="897" y="1595.6592">Module</text><text fill="#000000" font-family="sans-serif" font-size="14" lengthAdjust="spacing" textLength="107" x="991" y="138.8545">module.groovy</text><ellipse cx="1047.5" cy="109.8594" fill="#FFFF99" rx="12" ry="12" style="stroke:#181818;stroke-width:0.5;"/><line style="stroke:#181818;stroke-width:0.5;" x1="1035.5" x2="1059.5" y1="123.8594" y2="123.8594"/><text fill="#000000" font-family="sans-serif" font-size="14" lengthAdjust="spacing" textLength="107" x="991" y="1588.6592">module.groovy</text><ellipse cx="1047.5" cy="1607.9609" fill="#FFFF99" rx="12" ry="12" style="stroke:#181818;stroke-width:0.5;"/><line style="stroke:#181818;stroke-width:0.5;" x1="1035.5" x2="1059.5" y1="1621.9609" y2="1621.9609"/><text fill="#000000" font-family="sans-serif" font-size="14" lengthAdjust="spacing" textLength="108" x="1137.5" y="138.8545">properties.yml</text><ellipse cx="1194.5" cy="109.8594" fill="#FFFF99" rx="12" ry="12" style="stroke:#181818;stroke-width:0.5;"/><line style="stroke:#181818;stroke-width:0.5;" x1="1182.5" x2="1206.5" y1="123.8594" y2="123.8594"/><text fill="#000000" font-family="sans-serif" font-size="14" lengthAdjust="spacing" textLength="108" x="1137.5" y="1588.6592">properties.yml</text><ellipse cx="1194.5" cy="1607.9609" fill="#FFFF99" rx="12" ry="12" style="stroke:#181818;stroke-width:0.5;"/><line style="stroke:#181818;stroke-width:0.5;" x1="1182.5" x2="1206.5" y1="1621.9609" y2="1621.9609"/><text fill="#000000" font-family="sans-serif" font-size="14" lengthAdjust="spacing" textLength="115" x="1261.5" y="138.8545">parameters.yml</text><ellipse cx="1322" cy="109.8594" fill="#FFFF99" rx="12" ry="12" style="stroke:#181818;stroke-width:0.5;"/><line style="stroke:#181818;stroke-width:0.5;" x1="1310" x2="1334" y1="123.8594" y2="123.8594"/><text fill="#000000" font-family="sans-serif" font-size="14" lengthAdjust="spacing" textLength="115" x="1261.5" y="1588.6592">parameters.yml</text><ellipse cx="1322" cy="1607.9609" fill="#FFFF99" rx="12" ry="12" style="stroke:#181818;stroke-width:0.5;"/><line style="stroke:#181818;stroke-width:0.5;" x1="1310" x2="1334" y1="1621.9609" y2="1621.9609"/><rect fill="#FFFFFF" height="218.0625" style="stroke:#181818;stroke-width:1.0;" width="10" x="202.5" y="275.8203"/><rect fill="#FFFFFF" height="383.8594" style="stroke:#181818;stroke-width:1.0;" width="10" x="202.5" y="799.2109"/><rect fill="#FFFFFF" height="875.9844" style="stroke:#181818;stroke-width:1.0;" width="10" x="354.5" y="610.4141"/><rect fill="#FFFFFF" height="144.5313" style="stroke:#181818;stroke-width:1.0;" width="10" x="579.5" y="654.6797"/><rect fill="#FFFFFF" height="77.2656" style="stroke:#181818;stroke-width:1.0;" width="10" x="579.5" y="1212.2031"/><rect fill="#FFFFFF" height="116.5313" style="stroke:#181818;stroke-width:1.0;" width="10" x="579.5" y="1325.6016"/><rect fill="#FFFFFF" height="72.2656" style="stroke:#181818;stroke-width:1.0;" width="10" x="579.5" y="1486.3984"/><rect fill="#FFFFFF" height="72.2656" style="stroke:#181818;stroke-width:1.0;" width="10" x="702.5" y="668.6797"/><rect fill="#FFFFFF" height="29.1328" style="stroke:#181818;stroke-width:1.0;" width="10" x="702.5" y="1030.4063"/><rect fill="#FFFFFF" height="29.1328" style="stroke:#181818;stroke-width:1.0;" width="10" x="702.5" y="1399"/><rect fill="#FFFFFF" height="43.1328" style="stroke:#181818;stroke-width:1.0;" width="10" x="769.5" y="1515.5313"/><rect fill="#FFFFFF" height="218.0625" style="stroke:#181818;stroke-width:1.0;" width="10" x="917.5" y="275.8203"/><rect fill="#FFFFFF" height="130.5313" style="stroke:#181818;stroke-width:1.0;" width="10" x="917.5" y="972.1406"/><rect fill="#FFFFFF" height="72.2656" style="stroke:#181818;stroke-width:1.0;" width="10" x="1042.5" y="320.0859"/><rect fill="#FFFFFF" height="72.2656" style="stroke:#181818;stroke-width:1.0;" width="10" x="1042.5" y="1001.2734"/><rect fill="#FFFFFF" height="72.2656" style="stroke:#181818;stroke-width:1.0;" width="10" x="1042.5" y="1369.8672"/><rect fill="#EEEEEE" height="3" style="stroke:#EEEEEE;stroke-width:1.0;" width="1387.5" x="0" y="172.7227"/><line style="stroke:#000000;stroke-width:1.0;" x1="0" x2="1387.5" y1="172.7227" y2="172.7227"/><line style="stroke:#000000;stroke-width:1.0;" x1="0" x2="1387.5" y1="175.7227" y2="175.7227"/><rect fill="#EEEEEE" height="23.1328" style="stroke:#000000;stroke-width:2.0;" width="108" x="639.75" y="162.1563"/><text fill="#000000" font-family="sans-serif" font-size="13" font-weight="bold" lengthAdjust="spacing" textLength="94" x="645.75" y="178.2231">&#1055;&#1086;&#1076;&#1075;&#1086;&#1090;&#1086;&#1074;&#1082;&#1072;</text><polygon fill="#181818" points="44.5,227.5547,34.5,231.5547,44.5,235.5547,40.5,231.5547" style="stroke:#181818;stroke-width:1.0;"/><line style="stroke:#181818;stroke-width:1.0;" x1="38.5" x2="206.5" y1="231.5547" y2="231.5547"/><text fill="#000000" font-family="sans-serif" font-size="13" lengthAdjust="spacing" textLength="128" x="50.5" y="211.356">&#1056;&#1091;&#1095;&#1085;&#1086;&#1077; &#1089;&#1074;&#1103;&#1079;&#1099;&#1074;&#1072;&#1085;&#1080;&#1077;</text><text fill="#000000" font-family="sans-serif" font-size="13" lengthAdjust="spacing" textLength="124" x="50.5" y="226.4888">Jenkins c Jenkinsfile</text><polygon fill="#181818" points="905.5,271.8203,915.5,275.8203,905.5,279.8203,909.5,275.8203" style="stroke:#181818;stroke-width:1.0;"/><line style="stroke:#181818;stroke-width:1.0;stroke-dasharray:2.0,2.0;" x1="212.5" x2="911.5" y1="275.8203" y2="275.8203"/><text fill="#000000" font-family="sans-serif" font-size="13" lengthAdjust="spacing" textLength="72" x="219.5" y="255.6216">&#1053;&#1072;&#1087;&#1080;&#1089;&#1072;&#1085;&#1080;&#1077;</text><text fill="#000000" font-family="sans-serif" font-size="13" lengthAdjust="spacing" textLength="60" x="219.5" y="270.7544">&#1084;&#1086;&#1076;&#1091;&#1083;&#1077;&#1081;</text><polygon fill="#181818" points="1030.5,316.0859,1040.5,320.0859,1030.5,324.0859,1034.5,320.0859" style="stroke:#181818;stroke-width:1.0;"/><line style="stroke:#181818;stroke-width:1.0;stroke-dasharray:2.0,2.0;" x1="927.5" x2="1036.5" y1="320.0859" y2="320.0859"/><text fill="#000000" font-family="sans-serif" font-size="13" lengthAdjust="spacing" textLength="65" x="934.5" y="299.8872">&#1054;&#1087;&#1080;&#1089;&#1072;&#1085;&#1080;&#1077;</text><text fill="#000000" font-family="sans-serif" font-size="13" lengthAdjust="spacing" textLength="51" x="934.5" y="315.02">&#1084;&#1086;&#1076;&#1091;&#1083;&#1103;</text><polygon fill="#181818" points="1182.5,345.2188,1192.5,349.2188,1182.5,353.2188,1186.5,349.2188" style="stroke:#181818;stroke-width:1.0;"/><line style="stroke:#181818;stroke-width:1.0;stroke-dasharray:2.0,2.0;" x1="1052.5" x2="1188.5" y1="349.2188" y2="349.2188"/><text fill="#000000" font-family="sans-serif" font-size="13" lengthAdjust="spacing" textLength="118" x="1059.5" y="344.1528">&#1059;&#1082;&#1072;&#1079;&#1072;&#1085;&#1080;&#1077; &#1089;&#1074;&#1086;&#1081;&#1089;&#1090;&#1074;</text><polygon fill="#181818" points="1310,374.3516,1320,378.3516,1310,382.3516,1314,378.3516" style="stroke:#181818;stroke-width:1.0;"/><line style="stroke:#181818;stroke-width:1.0;stroke-dasharray:2.0,2.0;" x1="1052.5" x2="1316" y1="378.3516" y2="378.3516"/><text fill="#000000" font-family="sans-serif" font-size="13" lengthAdjust="spacing" textLength="146" x="1059.5" y="373.2856">&#1059;&#1082;&#1072;&#1079;&#1072;&#1085;&#1080;&#1077; &#1087;&#1072;&#1088;&#1072;&#1084;&#1077;&#1090;&#1088;&#1086;&#1074;</text><polygon fill="#181818" points="938.5,388.3516,928.5,392.3516,938.5,396.3516,934.5,392.3516" style="stroke:#181818;stroke-width:1.0;"/><line style="stroke:#181818;stroke-width:1.0;stroke-dasharray:2.0,2.0;" x1="932.5" x2="1046.5" y1="392.3516" y2="392.3516"/><line style="stroke:#181818;stroke-width:1.0;" x1="212.5" x2="254.5" y1="436.6172" y2="436.6172"/><line style="stroke:#181818;stroke-width:1.0;" x1="254.5" x2="254.5" y1="436.6172" y2="449.6172"/><line style="stroke:#181818;stroke-width:1.0;" x1="213.5" x2="254.5" y1="449.6172" y2="449.6172"/><polygon fill="#181818" points="223.5,445.6172,213.5,449.6172,223.5,453.6172,219.5,449.6172" style="stroke:#181818;stroke-width:1.0;"/><text fill="#000000" font-family="sans-serif" font-size="13" lengthAdjust="spacing" textLength="83" x="219.5" y="416.4185">&#1044;&#1086;&#1073;&#1072;&#1074;&#1083;&#1077;&#1085;&#1080;&#1077;</text><text fill="#000000" font-family="sans-serif" font-size="13" lengthAdjust="spacing" textLength="41" x="219.5" y="431.5513">&#1096;&#1072;&#1075;&#1086;&#1074;</text><polygon fill="#181818" points="218.5,489.8828,208.5,493.8828,218.5,497.8828,214.5,493.8828" style="stroke:#181818;stroke-width:1.0;"/><line style="stroke:#181818;stroke-width:1.0;stroke-dasharray:2.0,2.0;" x1="212.5" x2="921.5" y1="493.8828" y2="493.8828"/><text fill="#000000" font-family="sans-serif" font-size="13" lengthAdjust="spacing" textLength="83" x="224.5" y="473.6841">&#1044;&#1086;&#1073;&#1072;&#1074;&#1083;&#1077;&#1085;&#1080;&#1077;</text><text fill="#000000" font-family="sans-serif" font-size="13" lengthAdjust="spacing" textLength="60" x="224.5" y="488.8169">&#1084;&#1086;&#1076;&#1091;&#1083;&#1077;&#1081;</text><rect fill="#EEEEEE" height="3" style="stroke:#EEEEEE;stroke-width:1.0;" width="1387.5" x="0" y="522.4492"/><line style="stroke:#000000;stroke-width:1.0;" x1="0" x2="1387.5" y1="522.4492" y2="522.4492"/><line style="stroke:#000000;stroke-width:1.0;" x1="0" x2="1387.5" y1="525.4492" y2="525.4492"/><rect fill="#EEEEEE" height="23.1328" style="stroke:#000000;stroke-width:2.0;" width="66" x="660.75" y="511.8828"/><text fill="#000000" font-family="sans-serif" font-size="13" font-weight="bold" lengthAdjust="spacing" textLength="52" x="666.75" y="527.9497">&#1047;&#1072;&#1087;&#1091;&#1089;&#1082;</text><polygon fill="#181818" points="195.5,577.2813,205.5,581.2813,195.5,585.2813,199.5,581.2813" style="stroke:#181818;stroke-width:1.0;"/><line style="stroke:#181818;stroke-width:1.0;" x1="33.5" x2="201.5" y1="581.2813" y2="581.2813"/><text fill="#000000" font-family="sans-serif" font-size="13" lengthAdjust="spacing" textLength="49" x="40.5" y="561.0825">&#1050;&#1085;&#1086;&#1087;&#1082;&#1072;</text><text fill="#000000" font-family="sans-serif" font-size="13" lengthAdjust="spacing" textLength="150" x="40.5" y="576.2153">"Build with Parameters"</text><polygon fill="#181818" points="342.5,606.4141,352.5,610.4141,342.5,614.4141,346.5,610.4141" style="stroke:#181818;stroke-width:1.0;"/><line style="stroke:#181818;stroke-width:1.0;" x1="207.5" x2="348.5" y1="610.4141" y2="610.4141"/><text fill="#000000" font-family="sans-serif" font-size="13" lengthAdjust="spacing" textLength="84" x="214.5" y="605.3481">Pipeline.run()</text><polygon fill="#181818" points="567.5,650.6797,577.5,654.6797,567.5,658.6797,571.5,654.6797" style="stroke:#181818;stroke-width:1.0;"/><line style="stroke:#181818;stroke-width:1.0;" x1="364.5" x2="573.5" y1="654.6797" y2="654.6797"/><text fill="#000000" font-family="sans-serif" font-size="13" lengthAdjust="spacing" textLength="128" x="371.5" y="634.481">Pipeline.stage("Init")</text><text fill="#000000" font-family="sans-serif" font-size="13" lengthAdjust="spacing" textLength="196" x="371.5" y="649.6138">(&#1054;&#1073;&#1097;&#1080;&#1081; &#1096;&#1072;&#1075; &#1080;&#1085;&#1080;&#1094;&#1080;&#1072;&#1083;&#1080;&#1079;&#1072;&#1094;&#1080;&#1080;)</text><polygon fill="#181818" points="690.5,664.6797,700.5,668.6797,690.5,672.6797,694.5,668.6797" style="stroke:#181818;stroke-width:1.0;"/><line style="stroke:#181818;stroke-width:1.0;" x1="589.5" x2="696.5" y1="668.6797" y2="668.6797"/><polygon fill="#181818" points="723.5,693.8125,713.5,697.8125,723.5,701.8125,719.5,697.8125" style="stroke:#181818;stroke-width:1.0;"/><line style="stroke:#181818;stroke-width:1.0;" x1="717.5" x2="1193.5" y1="697.8125" y2="697.8125"/><text fill="#000000" font-family="sans-serif" font-size="13" lengthAdjust="spacing" textLength="128" x="729.5" y="692.7466">&#1055;&#1086;&#1083;&#1091;&#1095;&#1077;&#1085;&#1080;&#1077; &#1089;&#1074;&#1086;&#1081;&#1089;&#1090;&#1074;</text><polygon fill="#181818" points="723.5,722.9453,713.5,726.9453,723.5,730.9453,719.5,726.9453" style="stroke:#181818;stroke-width:1.0;"/><line style="stroke:#181818;stroke-width:1.0;" x1="717.5" x2="1321" y1="726.9453" y2="726.9453"/><text fill="#000000" font-family="sans-serif" font-size="13" lengthAdjust="spacing" textLength="156" x="729.5" y="721.8794">&#1055;&#1086;&#1083;&#1091;&#1095;&#1077;&#1085;&#1080;&#1077; &#1087;&#1072;&#1088;&#1072;&#1084;&#1077;&#1090;&#1088;&#1086;&#1074;</text><polygon fill="#181818" points="600.5,736.9453,590.5,740.9453,600.5,744.9453,596.5,740.9453" style="stroke:#181818;stroke-width:1.0;"/><line style="stroke:#181818;stroke-width:1.0;" x1="594.5" x2="706.5" y1="740.9453" y2="740.9453"/><polygon fill="#181818" points="218.5,781.2109,208.5,785.2109,218.5,789.2109,214.5,785.2109" style="stroke:#181818;stroke-width:1.0;"/><line style="stroke:#181818;stroke-width:1.0;" x1="212.5" x2="353.5" y1="785.2109" y2="785.2109"/><text fill="#000000" font-family="sans-serif" font-size="13" lengthAdjust="spacing" textLength="83" x="224.5" y="765.0122">&#1063;&#1090;&#1077;&#1085;&#1080;&#1077; &#1090;&#1077;&#1083;&#1072;</text><text fill="#000000" font-family="sans-serif" font-size="13" lengthAdjust="spacing" textLength="73" x="224.5" y="780.145">&#1087;&#1072;&#1081;&#1087;&#1083;&#1072;&#1081;&#1085;&#1072;</text><polygon fill="#181818" points="375.5,795.2109,365.5,799.2109,375.5,803.2109,371.5,799.2109" style="stroke:#181818;stroke-width:1.0;"/><line style="stroke:#181818;stroke-width:1.0;" x1="369.5" x2="583.5" y1="799.2109" y2="799.2109"/><path d="M138,814.2109 L538,814.2109 L538,836.4766 L528,846.4766 L138,846.4766 L138,814.2109 " fill="#EEEEEE" style="stroke:#000000;stroke-width:1.5;"/><rect fill="none" height="90.5313" style="stroke:#000000;stroke-width:1.5;" width="484.5" x="138" y="814.2109"/><text fill="#000000" font-family="sans-serif" font-size="13" font-weight="bold" lengthAdjust="spacing" textLength="101" x="153" y="827.2778">&#1055;&#1088;&#1086;&#1089;&#1090;&#1086;&#1081; &#1096;&#1072;&#1075;</text><text fill="#000000" font-family="sans-serif" font-size="13" font-weight="bold" lengthAdjust="spacing" textLength="355" x="153" y="842.4106">(&#1073;&#1083;&#1086;&#1082; &#1074;&#1099;&#1087;&#1086;&#1083;&#1085;&#1080;&#1090;&#1089;&#1103; &#1076;&#1083;&#1103; &#1082;&#1072;&#1078;&#1076;&#1086;&#1075;&#1086; &#1090;&#1072;&#1082;&#1086;&#1075;&#1086; &#1096;&#1072;&#1075;&#1072;)</text><polygon fill="#181818" points="342.5,863.6094,352.5,867.6094,342.5,871.6094,346.5,867.6094" style="stroke:#181818;stroke-width:1.0;"/><line style="stroke:#181818;stroke-width:1.0;" x1="212.5" x2="348.5" y1="867.6094" y2="867.6094"/><text fill="#000000" font-family="sans-serif" font-size="13" lengthAdjust="spacing" textLength="99" x="219.5" y="862.5435">Pipeline.stage()</text><polygon fill="#181818" points="375.5,892.7422,365.5,896.7422,375.5,900.7422,371.5,896.7422" style="stroke:#181818;stroke-width:1.0;"/><polygon fill="#181818" points="572.5,892.7422,582.5,896.7422,572.5,900.7422,576.5,896.7422" style="stroke:#181818;stroke-width:1.0;"/><line style="stroke:#181818;stroke-width:1.0;" x1="369.5" x2="578.5" y1="896.7422" y2="896.7422"/><text fill="#000000" font-family="sans-serif" font-size="13" lengthAdjust="spacing" textLength="78" x="381.5" y="891.6763">new Stage()</text><path d="M138,918.7422 L538,918.7422 L538,941.0078 L528,951.0078 L138,951.0078 L138,918.7422 " fill="#EEEEEE" style="stroke:#000000;stroke-width:1.5;"/><rect fill="none" height="221.0625" style="stroke:#000000;stroke-width:1.5;" width="976" x="138" y="918.7422"/><text fill="#000000" font-family="sans-serif" font-size="13" font-weight="bold" lengthAdjust="spacing" textLength="123" x="153" y="931.8091">&#1052;&#1086;&#1076;&#1091;&#1083;&#1100;&#1085;&#1099;&#1081; &#1096;&#1072;&#1075;</text><text fill="#000000" font-family="sans-serif" font-size="13" font-weight="bold" lengthAdjust="spacing" textLength="355" x="153" y="946.9419">(&#1073;&#1083;&#1086;&#1082; &#1074;&#1099;&#1087;&#1086;&#1083;&#1085;&#1080;&#1090;&#1089;&#1103; &#1076;&#1083;&#1103; &#1082;&#1072;&#1078;&#1076;&#1086;&#1075;&#1086; &#1090;&#1072;&#1082;&#1086;&#1075;&#1086; &#1096;&#1072;&#1075;&#1072;)</text><polygon fill="#181818" points="905.5,968.1406,915.5,972.1406,905.5,976.1406,909.5,972.1406" style="stroke:#181818;stroke-width:1.0;"/><line style="stroke:#181818;stroke-width:1.0;" x1="212.5" x2="911.5" y1="972.1406" y2="972.1406"/><text fill="#000000" font-family="sans-serif" font-size="13" lengthAdjust="spacing" textLength="111" x="219.5" y="967.0747">Module.execute()</text><polygon fill="#181818" points="1030.5,997.2734,1040.5,1001.2734,1030.5,1005.2734,1034.5,1001.2734" style="stroke:#181818;stroke-width:1.0;"/><line style="stroke:#181818;stroke-width:1.0;" x1="927.5" x2="1036.5" y1="1001.2734" y2="1001.2734"/><text fill="#000000" font-family="sans-serif" font-size="13" lengthAdjust="spacing" textLength="78" x="934.5" y="996.2075">Module.init()</text><line style="stroke:#181818;stroke-width:1.0;" x1="713.5" x2="723.5" y1="1030.4063" y2="1026.4063"/><line style="stroke:#181818;stroke-width:1.0;" x1="713.5" x2="723.5" y1="1030.4063" y2="1034.4063"/><line style="stroke:#181818;stroke-width:1.0;" x1="1040.5" x2="1030.5" y1="1030.4063" y2="1026.4063"/><line style="stroke:#181818;stroke-width:1.0;" x1="1040.5" x2="1030.5" y1="1030.4063" y2="1034.4063"/><line style="stroke:#181818;stroke-width:1.0;stroke-dasharray:2.0,2.0;" x1="712.5" x2="1041.5" y1="1030.4063" y2="1030.4063"/><text fill="#000000" font-family="sans-serif" font-size="13" lengthAdjust="spacing" textLength="119" x="729.5" y="1025.3403">&#1055;&#1088;&#1086;&#1074;&#1077;&#1088;&#1082;&#1072; &#1089;&#1074;&#1086;&#1081;&#1089;&#1090;&#1074;</text><line style="stroke:#181818;stroke-width:1.0;" x1="708.5" x2="718.5" y1="1059.5391" y2="1055.5391"/><line style="stroke:#181818;stroke-width:1.0;" x1="708.5" x2="718.5" y1="1059.5391" y2="1063.5391"/><line style="stroke:#181818;stroke-width:1.0;" x1="1040.5" x2="1030.5" y1="1059.5391" y2="1055.5391"/><line style="stroke:#181818;stroke-width:1.0;" x1="1040.5" x2="1030.5" y1="1059.5391" y2="1063.5391"/><line style="stroke:#181818;stroke-width:1.0;stroke-dasharray:2.0,2.0;" x1="707.5" x2="1041.5" y1="1059.5391" y2="1059.5391"/><text fill="#000000" font-family="sans-serif" font-size="13" lengthAdjust="spacing" textLength="147" x="724.5" y="1054.4731">&#1055;&#1088;&#1086;&#1074;&#1077;&#1088;&#1082;&#1072; &#1087;&#1072;&#1088;&#1072;&#1084;&#1077;&#1090;&#1088;&#1086;&#1074;</text><polygon fill="#181818" points="938.5,1069.5391,928.5,1073.5391,938.5,1077.5391,934.5,1073.5391" style="stroke:#181818;stroke-width:1.0;"/><line style="stroke:#181818;stroke-width:1.0;" x1="932.5" x2="1046.5" y1="1073.5391" y2="1073.5391"/><polygon fill="#181818" points="375.5,1098.6719,365.5,1102.6719,375.5,1106.6719,371.5,1102.6719" style="stroke:#181818;stroke-width:1.0;"/><line style="stroke:#181818;stroke-width:1.0;" x1="369.5" x2="921.5" y1="1102.6719" y2="1102.6719"/><text fill="#000000" font-family="sans-serif" font-size="13" lengthAdjust="spacing" textLength="99" x="381.5" y="1097.606">Pipeline.stage()</text><polygon fill="#181818" points="375.5,1127.8047,365.5,1131.8047,375.5,1135.8047,371.5,1131.8047" style="stroke:#181818;stroke-width:1.0;"/><polygon fill="#181818" points="572.5,1127.8047,582.5,1131.8047,572.5,1135.8047,576.5,1131.8047" style="stroke:#181818;stroke-width:1.0;"/><line style="stroke:#181818;stroke-width:1.0;" x1="369.5" x2="578.5" y1="1131.8047" y2="1131.8047"/><text fill="#000000" font-family="sans-serif" font-size="13" lengthAdjust="spacing" textLength="78" x="381.5" y="1126.7388">new Stage()</text><polygon fill="#181818" points="342.5,1179.0703,352.5,1183.0703,342.5,1187.0703,346.5,1183.0703" style="stroke:#181818;stroke-width:1.0;"/><line style="stroke:#181818;stroke-width:1.0;" x1="207.5" x2="348.5" y1="1183.0703" y2="1183.0703"/><text fill="#000000" font-family="sans-serif" font-size="13" lengthAdjust="spacing" textLength="83" x="214.5" y="1162.8716">&#1042;&#1099;&#1087;&#1086;&#1083;&#1085;&#1077;&#1085;&#1080;&#1077;</text><text fill="#000000" font-family="sans-serif" font-size="13" lengthAdjust="spacing" textLength="109" x="214.5" y="1178.0044">&#1090;&#1077;&#1083;&#1072; &#1087;&#1072;&#1081;&#1087;&#1083;&#1072;&#1081;&#1085;&#1072;</text><polygon fill="#181818" points="567.5,1208.2031,577.5,1212.2031,567.5,1216.2031,571.5,1212.2031" style="stroke:#181818;stroke-width:1.0;"/><line style="stroke:#181818;stroke-width:1.0;" x1="364.5" x2="573.5" y1="1212.2031" y2="1212.2031"/><text fill="#000000" font-family="sans-serif" font-size="13" lengthAdjust="spacing" textLength="103" x="371.5" y="1207.1372">Stage.execute()</text><line style="stroke:#181818;stroke-width:1.0;" x1="589.5" x2="631.5" y1="1256.4688" y2="1256.4688"/><line style="stroke:#181818;stroke-width:1.0;" x1="631.5" x2="631.5" y1="1256.4688" y2="1269.4688"/><line style="stroke:#181818;stroke-width:1.0;" x1="590.5" x2="631.5" y1="1269.4688" y2="1269.4688"/><polygon fill="#181818" points="600.5,1265.4688,590.5,1269.4688,600.5,1273.4688,596.5,1269.4688" style="stroke:#181818;stroke-width:1.0;"/><text fill="#000000" font-family="sans-serif" font-size="13" lengthAdjust="spacing" textLength="83" x="596.5" y="1236.27">&#1042;&#1099;&#1087;&#1086;&#1083;&#1085;&#1077;&#1085;&#1080;&#1077;</text><text fill="#000000" font-family="sans-serif" font-size="13" lengthAdjust="spacing" textLength="99" x="596.5" y="1251.4028">&#1087;&#1088;&#1086;&#1089;&#1090;&#1086;&#1075;&#1086; &#1096;&#1072;&#1075;&#1072;</text><polygon fill="#181818" points="567.5,1321.6016,577.5,1325.6016,567.5,1329.6016,571.5,1325.6016" style="stroke:#181818;stroke-width:1.0;"/><line style="stroke:#181818;stroke-width:1.0;" x1="364.5" x2="573.5" y1="1325.6016" y2="1325.6016"/><text fill="#000000" font-family="sans-serif" font-size="13" lengthAdjust="spacing" textLength="103" x="371.5" y="1320.5356">Stage.execute()</text><polygon fill="#181818" points="1030.5,1365.8672,1040.5,1369.8672,1030.5,1373.8672,1034.5,1369.8672" style="stroke:#181818;stroke-width:1.0;"/><line style="stroke:#181818;stroke-width:1.0;" x1="589.5" x2="1036.5" y1="1369.8672" y2="1369.8672"/><text fill="#000000" font-family="sans-serif" font-size="13" lengthAdjust="spacing" textLength="111" x="596.5" y="1349.6685">Module.execute()</text><text fill="#000000" font-family="sans-serif" font-size="13" lengthAdjust="spacing" textLength="207" x="596.5" y="1364.8013">&#1042;&#1099;&#1087;&#1086;&#1083;&#1085;&#1077;&#1085;&#1080;&#1077; &#1084;&#1086;&#1076;&#1091;&#1083;&#1100;&#1085;&#1086;&#1075;&#1086; &#1096;&#1072;&#1075;&#1072;</text><polygon fill="#181818" points="1030.5,1395,1040.5,1399,1030.5,1403,1034.5,1399" style="stroke:#181818;stroke-width:1.0;"/><line style="stroke:#181818;stroke-width:1.0;" x1="712.5" x2="1036.5" y1="1399" y2="1399"/><text fill="#000000" font-family="sans-serif" font-size="13" lengthAdjust="spacing" textLength="128" x="719.5" y="1393.9341">&#1055;&#1086;&#1083;&#1091;&#1095;&#1077;&#1085;&#1080;&#1077; &#1089;&#1074;&#1086;&#1081;&#1089;&#1090;&#1074;</text><polygon fill="#181818" points="1030.5,1424.1328,1040.5,1428.1328,1030.5,1432.1328,1034.5,1428.1328" style="stroke:#181818;stroke-width:1.0;"/><line style="stroke:#181818;stroke-width:1.0;" x1="707.5" x2="1036.5" y1="1428.1328" y2="1428.1328"/><text fill="#000000" font-family="sans-serif" font-size="13" lengthAdjust="spacing" textLength="156" x="714.5" y="1423.0669">&#1055;&#1086;&#1083;&#1091;&#1095;&#1077;&#1085;&#1080;&#1077; &#1087;&#1072;&#1088;&#1072;&#1084;&#1077;&#1090;&#1088;&#1086;&#1074;</text><polygon fill="#181818" points="595.5,1438.1328,585.5,1442.1328,595.5,1446.1328,591.5,1442.1328" style="stroke:#181818;stroke-width:1.0;"/><line style="stroke:#181818;stroke-width:1.0;" x1="589.5" x2="1046.5" y1="1442.1328" y2="1442.1328"/><polygon fill="#181818" points="567.5,1482.3984,577.5,1486.3984,567.5,1490.3984,571.5,1486.3984" style="stroke:#181818;stroke-width:1.0;"/><line style="stroke:#181818;stroke-width:1.0;" x1="359.5" x2="573.5" y1="1486.3984" y2="1486.3984"/><text fill="#000000" font-family="sans-serif" font-size="13" lengthAdjust="spacing" textLength="152" x="366.5" y="1466.1997">Pipeline.stage("Report")</text><text fill="#000000" font-family="sans-serif" font-size="13" lengthAdjust="spacing" textLength="170" x="366.5" y="1481.3325">(&#1054;&#1073;&#1097;&#1080;&#1081; &#1096;&#1072;&#1075; &#1079;&#1072;&#1074;&#1077;&#1088;&#1096;&#1077;&#1085;&#1080;&#1103;)</text><polygon fill="#181818" points="757.5,1511.5313,767.5,1515.5313,757.5,1519.5313,761.5,1515.5313" style="stroke:#181818;stroke-width:1.0;"/><line style="stroke:#181818;stroke-width:1.0;" x1="589.5" x2="763.5" y1="1515.5313" y2="1515.5313"/><text fill="#000000" font-family="sans-serif" font-size="13" lengthAdjust="spacing" textLength="80" x="596.5" y="1510.4653">Email.send()</text><polygon fill="#181818" points="790.5,1540.6641,780.5,1544.6641,790.5,1548.6641,786.5,1544.6641" style="stroke:#181818;stroke-width:1.0;"/><line style="stroke:#181818;stroke-width:1.0;" x1="784.5" x2="860.5" y1="1544.6641" y2="1544.6641"/><text fill="#000000" font-family="sans-serif" font-size="13" lengthAdjust="spacing" textLength="58" x="796.5" y="1539.5981">Job.info()</text><polygon fill="#181818" points="595.5,1554.6641,585.5,1558.6641,595.5,1562.6641,591.5,1558.6641" style="stroke:#181818;stroke-width:1.0;"/><line style="stroke:#181818;stroke-width:1.0;" x1="589.5" x2="773.5" y1="1558.6641" y2="1558.6641"/><!--SRC=[lLPDJnD16BxFhvZKW_JGSj0B14ZmWqGJbSZHUbZQ0JPkPzVk5EGcrVWHJ4YCYObHDF7WjLGhBHNu2pF_o7TcTcTdsrci7gG9k_lE-_q-xxDxUOknA9wVdOq2Zx9sCwZMm-PiJ1wt2QsJIiFtDbjU4p6V1GJV8DlteXYlW8JiXAr7DRgslBgsV1UXXiUyTIyc-3QXZtmQuqihArUlNhc220NJNLoA_8W4FYNLpLOORk_Mw4oYkU47f5p2Nemj0LeFd-0QvOVyIBpc0zx7_8IFU5VimMyVdC_97ugy5lFhVWIPuzKa0BuqDxS2Vxd3DUPjka-kXtJ3ttGUtMnwVk0ykHskE-LtmaOxoE8Gsi1GI5hC1tx6JyLpAESx7s1-3ey_P5rT_fF_4Fjy23Bn5AHzVY8wfiYaWqtbEscVRDVrTip2PXfI1fmpob4hZ0ZaHUBgRZEGsgj6Cg7hoN4oqifqZSJIrQMWnKN-MIOEDPo93jprP0MBYmYbar-es9F4yvX_4S_4ItugAyDYZ_V40J-6UdjG-QaSRescjlKS293jfr9PIlihVNu2utC-07V62Vyb4nFF02XzFaJ8gpD_ssCavzC8jI-Kk9JUSms548V50SH1viWsGpaVqgdLTt3vLOtxE7MfkW4-Xu3g3kyvhBD9EAmXlou0fWjvzKL7GQUN5hHGgUGpQn1tnlacButFxXquFO8GFTNLf17Y5KY-gt0vSnaqwv_JT6n8LbRsb2nncYO0xxsSEM1fZv_OW9jC-eC2sxbiLusMhhNze85tVBPbzRCqNhVXZtbpMssrwKovnceictPwXem-s6fwiGnZAPWftQ8-AvM1wmoH3R7k7OPxw8Xu0TSkz68WnwgU1kKicFABa7Ol4Qh8oeAUVauu31OlZpQvg2ErU_q2l6M6EQ1D6ZgXflC2woIF7CQqA8yEkydy6wHWyfAt8paj6OWFuVz8NKzvDolVzDwAaxJ8YIBWodO4rSXqLSLdflzo9aSGuuoVO22aVSN68pMI3gWUO62uaRmaz0odW7UPPnT4oOFUWcvv6YXfH9Gps2nOkA5aHz-30Z0jIZF_QFZc3RmvzlzFzcQ1zKsLF27rDfEf5N7d17KcbZx0N-xFD5ov0Donb29SOL233E3sL9On3js97VWhPquuJw8tpyTfQmgfD5Ey204ESfiA5CKWusyj26GadUmKTgnK0UqwIKrTNIZGgsUsCzLtPwC_RP8jjF6NEdYmvJSQX3vC74tk-3Iv5IRd1gWnXFmSMMFhXVz6lL9oYK-3weeDmZ_HySMOljZLFo9wejT5tmm9pqxprhjFeh1L-DuxLby4i8WWKCcBWx8To91yqIZrP_cylbPZM0qRb4gAv0UwfGgFG4OR8IXgaQjoRJbUycy0]--></g></svg>